<svg class="cat-icon" width="60" height="60" viewBox="0 0 60 60" fill="#19171B" xmlns="http://www.w3.org/2000/svg">
<path d="M14.22 42.4393C14.2172 42.4393 14.2144 42.4393 14.2102 42.4393C13.7484 42.4337 13.3772 42.0555 13.3814 41.5937C13.4121 38.75 15.787 36.4351 17.8828 34.3937C19.4093 32.9062 20.9874 31.3672 20.8339 30.2634C20.6149 28.6895 18.9879 27.7086 17.2646 26.669C17.0512 26.5407 16.8377 26.4123 16.627 26.2825C16.2335 26.0397 16.1107 25.5234 16.3535 25.13C16.5963 24.7365 17.1112 24.6137 17.506 24.8565C17.7125 24.9834 17.9205 25.109 18.1298 25.236C20.0205 26.376 22.1637 27.6695 22.493 30.0332C22.7637 31.9769 20.9609 33.7337 19.0521 35.5937C17.1893 37.409 15.0795 39.4658 15.0558 41.6132C15.0516 42.0709 14.6777 42.4393 14.22 42.4393Z" fill="#19171B"/>
<path d="M28.9674 51.6026C24.4227 51.6026 20.1948 50.1487 16.7818 47.3607C16.3018 46.9687 15.8651 46.5668 15.4841 46.1677C15.1646 45.8328 15.1772 45.3026 15.512 44.9845C15.8469 44.6649 16.3772 44.6775 16.6953 45.0124C17.0288 45.3626 17.4153 45.7156 17.8423 46.0659C21.826 49.3198 27.0516 50.5784 32.5576 49.6101C38.1097 48.6333 43.2753 45.5147 47.1041 40.8277C54.9767 31.1914 54.6613 17.8589 46.4009 11.1096C39.0153 5.07609 27.3976 6.29005 19.3772 13.9324C19.0423 14.2519 18.512 14.238 18.1939 13.9045C17.8744 13.5696 17.8883 13.0393 18.2232 12.7212C22.3772 8.764 27.5985 6.27051 32.926 5.7026C38.3455 5.12493 43.5083 6.58446 47.4627 9.8147C56.439 17.1487 56.8604 31.5361 48.4032 41.8882C44.3218 46.8849 38.7976 50.2142 32.8506 51.2607C31.5376 51.4882 30.2399 51.6026 28.9674 51.6026Z" fill="#19171B"/>
<path d="M41.9608 34.9143C40.8124 34.9143 39.6557 34.5333 38.6985 33.752C36.4938 31.9506 36.1659 28.6924 37.9673 26.4878C39.7687 24.2831 43.0268 23.9552 45.2315 25.7566C47.4361 27.558 47.7641 30.8161 45.9627 33.0208C44.9441 34.2668 43.458 34.9143 41.9608 34.9143ZM39.7575 32.4543C41.2464 33.671 43.4496 33.4492 44.6664 31.9603C45.8831 30.4715 45.6613 28.2696 44.1724 27.0515C42.6836 25.8348 40.4803 26.0566 39.2636 27.5454C38.0468 29.0357 38.2687 31.2375 39.7575 32.4543Z" fill="#19171B"/>
<path d="M29.5689 46.1118C28.2224 46.1118 26.9289 45.6528 25.8726 44.789C24.66 43.7983 23.9065 42.396 23.7489 40.8374C23.5912 39.2802 24.0517 37.7551 25.041 36.5425C27.0851 34.0393 30.7842 33.6681 33.2875 35.7123C34.5 36.703 35.2535 38.1053 35.4112 39.6639C35.5675 41.2211 35.1084 42.7463 34.1191 43.9588C33.1284 45.1714 31.7261 45.9249 30.1675 46.0825C29.9665 46.1021 29.767 46.1118 29.5689 46.1118ZM29.5828 36.0667C28.3689 36.0667 27.1633 36.5914 26.3372 37.603C25.6298 38.4695 25.3019 39.5579 25.4135 40.6714C25.5251 41.7835 26.0637 42.7867 26.9303 43.4942C27.7968 44.2016 28.8851 44.5295 29.9986 44.4179C31.1107 44.3062 32.114 43.7676 32.82 42.9011C33.5275 42.0346 33.8554 40.9463 33.7437 39.8328C33.6321 38.7207 33.0935 37.7174 32.227 37.01C31.4526 36.3751 30.5149 36.0667 29.5828 36.0667Z" fill="#19171B"/>
<path d="M39.1953 20.9885C38.2018 20.9885 37.2027 20.6592 36.3753 19.9825C34.4692 18.4253 34.1846 15.6067 35.7418 13.6993C37.299 11.7932 40.1176 11.5086 42.0251 13.0658C43.9311 14.623 44.2157 17.4416 42.6585 19.349C41.7753 20.4304 40.4902 20.9885 39.1953 20.9885ZM39.2023 13.7369C38.393 13.7369 37.5892 14.0858 37.0381 14.7611C36.0641 15.9527 36.2413 17.7137 37.433 18.6876C38.6246 19.6616 40.3855 19.4844 41.3595 18.2927C42.3334 17.1011 42.1562 15.3402 40.9646 14.3662C40.4469 13.942 39.8232 13.7369 39.2023 13.7369Z" fill="#19171B"/>
<path d="M25.5405 23.1389C24.6754 23.1389 23.8423 22.8431 23.1642 22.2891C22.3856 21.6528 21.9 20.7501 21.7996 19.7496C21.6991 18.7477 21.9935 17.7682 22.6312 16.9882C23.9456 15.3794 26.3233 15.1394 27.9321 16.4538C28.7107 17.0901 29.1963 17.9928 29.2968 18.9933C29.3972 19.9952 29.1028 20.9747 28.4651 21.7547C27.8288 22.5333 26.9261 23.0189 25.9256 23.1194C25.7972 23.1333 25.6688 23.1389 25.5405 23.1389ZM25.5502 17.2798C24.9433 17.2798 24.3405 17.5422 23.9275 18.0473C23.573 18.4798 23.4098 19.0254 23.4656 19.5808C23.5214 20.1375 23.7907 20.6384 24.2233 20.9915C24.6558 21.3459 25.2 21.5091 25.7568 21.4533C26.3135 21.3975 26.8144 21.1282 27.1675 20.6956C27.5219 20.2631 27.6851 19.7175 27.6293 19.1622C27.5735 18.6054 27.3042 18.1045 26.8716 17.7515C26.4837 17.4333 26.0149 17.2798 25.5502 17.2798Z" fill="#19171B"/>
<path d="M13.4301 41.9176C13.3436 41.9176 13.2557 41.9036 13.1678 41.8757C12.7283 41.7306 12.4896 41.2576 12.6348 40.818C13.1929 39.1241 13.772 37.0255 14.3566 34.5808C15.1115 31.426 15.8427 27.8008 16.4734 24.0962C17.3748 18.7855 18.0096 13.6478 18.2608 9.632C18.491 5.93851 18.339 4.21665 18.1896 3.43944C17.792 4.12316 17.0803 5.69851 16.0785 9.26084C14.9901 13.1343 13.8934 18.1925 12.9906 23.5046C11.8436 30.2525 11.132 36.7576 11.0873 40.9046C11.0817 41.3636 10.7078 41.732 10.2501 41.732C10.2473 41.732 10.2445 41.732 10.2403 41.732C9.77849 41.7264 9.40732 41.3483 9.4129 40.885C9.46035 36.5915 10.1622 30.1548 11.3399 23.2227C12.3278 17.4097 13.525 11.9846 14.7138 7.94781C15.2999 5.95805 15.8538 4.40363 16.3631 3.32502C16.8752 2.23944 17.5366 1.15386 18.5483 1.32549C19.5599 1.49851 19.825 2.74177 19.952 3.93479C20.0776 5.11944 20.0873 6.77154 19.9841 8.84223C19.7734 13.045 19.1134 18.5608 18.1255 24.3753C17.4892 28.1162 16.7496 31.779 15.9864 34.9687C15.3906 37.458 14.799 39.6013 14.2255 41.3399C14.1096 41.6943 13.7831 41.9176 13.4301 41.9176Z" fill="#19171B"/>
<path d="M11.732 58.6883C11.6804 58.6883 11.6288 58.6841 11.5785 58.6744C9.59992 58.3046 7.8655 56.4571 6.69481 53.4697C5.68876 50.905 5.28411 47.8716 5.63713 45.5511C5.93155 43.613 6.98364 41.8953 8.52271 40.839C9.8176 39.9502 11.2981 39.6292 12.692 39.9362C15.7534 40.6102 17.5729 44.2018 16.7483 47.9427C16.4134 49.4609 15.7004 50.6218 14.9455 51.8511C13.9506 53.4711 12.9222 55.1455 12.5622 57.9585C12.5329 58.1874 12.4116 58.3939 12.2246 58.5292C12.0795 58.6339 11.9078 58.6883 11.732 58.6883ZM11.6483 41.4962C10.9143 41.4962 10.1609 41.7432 9.46876 42.2176C8.31062 43.013 7.51667 44.319 7.29062 45.8023C6.97946 47.8478 7.34783 50.552 8.25202 52.8585C9.00132 54.7702 9.9976 56.125 11.065 56.7237C11.5688 54.1492 12.5971 52.4734 13.5181 50.9748C14.2269 49.8209 14.8381 48.8246 15.1129 47.5827C15.7381 44.7432 14.4906 42.0474 12.332 41.5716C12.1074 41.5213 11.8785 41.4962 11.6483 41.4962Z" fill="#19171B"/>
<path d="M15.173 35.6134C15.1228 35.6134 15.0711 35.6093 15.0195 35.5995L10.5753 34.7748C10.1204 34.6911 9.82043 34.253 9.90555 33.7995C9.99067 33.346 10.4274 33.0446 10.8809 33.1283L15.3251 33.953C15.78 34.0367 16.08 34.4749 15.9949 34.9283C15.9209 35.3316 15.5693 35.6134 15.173 35.6134Z" fill="#19171B"/>
</svg>
