<svg width="60" height="60" viewBox="0 0 60 60" xmlns="http://www.w3.org/2000/svg">
<path d="M30.0001 43.3772C24.8987 43.3772 20.7489 39.2274 20.7489 34.126V16.2656C20.7489 11.1642 24.8987 7.0144 30.0001 7.0144C35.1015 7.0144 39.2512 11.1642 39.2512 16.2656V34.126C39.2512 39.2274 35.1015 43.3772 30.0001 43.3772ZM30.0001 8.77254C25.8684 8.77254 22.507 12.1339 22.507 16.2656V34.126C22.507 38.2577 25.8684 41.6191 30.0001 41.6191C34.1317 41.6191 37.4931 38.2577 37.4931 34.126V16.2656C37.4931 12.1339 34.1317 8.77254 30.0001 8.77254Z"/>
<path d="M29.1377 42.2134L29.1223 35.2618L21.7325 35.259V33.5009L38.3721 33.5078V35.266L30.8805 35.2632L30.8958 42.2092L29.1377 42.2134Z"/>
<path d="M38.1279 31.3144H35.1977C34.7121 31.3144 34.3186 30.9209 34.3186 30.4353C34.3186 29.9497 34.7121 29.5562 35.1977 29.5562H38.1279C38.6135 29.5562 39.007 29.9497 39.007 30.4353C39.007 30.9209 38.6135 31.3144 38.1279 31.3144ZM24.6893 31.3144H21.7242C21.2386 31.3144 20.8451 30.9209 20.8451 30.4353C20.8451 29.9497 21.2386 29.5562 21.7242 29.5562H24.6893C25.1749 29.5562 25.5684 29.9497 25.5684 30.4353C25.5684 30.9209 25.1749 31.3144 24.6893 31.3144ZM38.1279 27.9655H36.4535C35.9679 27.9655 35.5744 27.572 35.5744 27.0865C35.5744 26.6009 35.9679 26.2074 36.4535 26.2074H38.1279C38.6135 26.2074 39.007 26.6009 39.007 27.0865C39.007 27.572 38.6135 27.9655 38.1279 27.9655ZM23.4181 27.9655H21.7242C21.2386 27.9655 20.8451 27.572 20.8451 27.0865C20.8451 26.6009 21.2386 26.2074 21.7242 26.2074H23.4181C23.9037 26.2074 24.2972 26.6009 24.2972 27.0865C24.2972 27.572 23.9037 27.9655 23.4181 27.9655Z"/>
<path d="M30.0001 47.1251C22.7442 47.1251 16.8419 41.2228 16.8419 33.967V30.8274C16.8419 30.3419 17.2354 29.9484 17.721 29.9484C18.2066 29.9484 18.6001 30.3419 18.6001 30.8274V33.967C18.6001 40.253 23.714 45.367 30.0001 45.367C36.2861 45.367 41.4001 40.253 41.4001 33.967V30.8623C41.4001 30.3767 41.7935 29.9832 42.2791 29.9832C42.7647 29.9832 43.1582 30.3767 43.1582 30.8623V33.967C43.1582 41.2228 37.2559 47.1251 30.0001 47.1251Z"/>
<path d="M35.3191 52.9856H25.1331C24.6475 52.9856 24.254 52.5921 24.254 52.1065C24.254 51.621 24.6475 51.2275 25.1331 51.2275H29.3638V46.3158C29.3638 45.8303 29.7573 45.4368 30.2429 45.4368C30.7284 45.4368 31.1219 45.8303 31.1219 46.3158V51.2275H35.3191C35.8047 51.2275 36.1982 51.621 36.1982 52.1065C36.1982 52.5921 35.8047 52.9856 35.3191 52.9856Z"/>
<path d="M17.721 25.9158C17.2354 25.9158 16.8419 25.5223 16.8419 25.0368V22.6786C16.8419 22.193 17.2354 21.7996 17.721 21.7996C18.2066 21.7996 18.6001 22.193 18.6001 22.6786V25.0368C18.6001 25.5223 18.2066 25.9158 17.721 25.9158Z"/>
<path d="M13.5181 25.9157H13.5167C13.0311 25.9143 12.639 25.5209 12.639 25.0353L12.6558 15.7562C12.6572 15.2706 13.0507 14.8785 13.5349 14.8785H13.5362C14.0218 14.8799 14.4139 15.2734 14.4139 15.759L14.3972 25.0381C14.3958 25.5237 14.0023 25.9157 13.5181 25.9157Z"/>
<path d="M9.33207 25.9158C9.33068 25.9158 9.33068 25.9158 9.33207 25.9158C8.8451 25.9158 8.453 25.5209 8.453 25.0354L8.46975 12.9C8.46975 12.4144 8.86324 12.0223 9.34882 12.0223H9.35021C9.8358 12.0223 10.2293 12.4172 10.2279 12.9028L10.2111 25.0382C10.2098 25.5237 9.81626 25.9158 9.33207 25.9158Z"/>
<path d="M5.14604 25.9159H5.14464C4.65906 25.9145 4.26697 25.521 4.26697 25.0354L4.28371 17.5354C4.28511 17.0512 4.6786 16.6577 5.16278 16.6577H5.16418C5.64976 16.6591 6.04185 17.0526 6.04185 17.5382L6.02511 25.0382C6.02371 25.5238 5.63022 25.9159 5.14604 25.9159Z"/>
<path d="M0.960017 25.9158C0.958622 25.9158 0.957227 25.9158 0.955831 25.9158C0.47025 25.913 0.0781567 25.5181 0.0809474 25.0325L0.0976916 21.5846C0.100482 21.1004 0.492575 20.7097 0.976761 20.7097C0.978157 20.7097 0.979552 20.7097 0.980947 20.7097C1.46653 20.7125 1.85862 21.1074 1.85583 21.593L1.83909 25.0409C1.8363 25.5251 1.44281 25.9158 0.960017 25.9158Z"/>
<path d="M17.721 28.2042C17.2354 28.2042 16.8419 27.8107 16.8419 27.3251V24.967C16.8419 24.4814 17.2354 24.0879 17.721 24.0879C18.2066 24.0879 18.6001 24.4814 18.6001 24.967V27.3251C18.6001 27.8107 18.2066 28.2042 17.721 28.2042Z"/>
<path d="M13.5349 35.1251C13.0507 35.1251 12.6572 34.733 12.6558 34.2474L12.639 24.9684C12.6376 24.4828 13.0311 24.0879 13.5167 24.0879H13.5181C14.0023 24.0879 14.3958 24.48 14.3972 24.9656L14.4139 34.2446C14.4153 34.7302 14.0218 35.1251 13.5363 35.1251H13.5349Z"/>
<path d="M9.34882 37.9814C8.86324 37.9814 8.47114 37.5893 8.46975 37.1037L8.453 24.9684C8.453 24.4828 8.8451 24.0893 9.33068 24.0879H9.33207C9.81765 24.0879 10.2097 24.48 10.2111 24.9656L10.2279 37.1009C10.2279 37.5865 9.83579 37.9814 9.34882 37.9814C9.35021 37.9814 9.34882 37.9814 9.34882 37.9814Z"/>
<path d="M5.16279 33.346C4.6786 33.346 4.28511 32.9539 4.28372 32.4684L4.26697 24.9684C4.26558 24.4828 4.65906 24.0879 5.14465 24.0879H5.14604C5.63023 24.0879 6.02372 24.48 6.02511 24.9656L6.04186 32.4656C6.04325 32.9511 5.64976 33.346 5.16418 33.346H5.16279Z"/>
<path d="M0.976761 29.2939C0.493971 29.2939 0.100482 28.9032 0.0976916 28.4191L0.0809474 24.9711C0.0781567 24.4856 0.47025 24.0907 0.955831 24.0879C0.957227 24.0879 0.958622 24.0879 0.960017 24.0879C1.44281 24.0879 1.8363 24.4786 1.83909 24.9628L1.85583 28.4107C1.85862 28.8963 1.46653 29.2911 0.980947 29.2939C0.979552 29.2939 0.978157 29.2939 0.976761 29.2939Z"/>
<path d="M42.2791 25.9855C41.7935 25.9855 41.4 25.5921 41.4 25.1065V22.7483C41.4 22.2628 41.7935 21.8693 42.2791 21.8693C42.7647 21.8693 43.1582 22.2628 43.1582 22.7483V25.1065C43.1582 25.5921 42.7647 25.9855 42.2791 25.9855Z"/>
<path d="M46.4819 25.9856C45.9977 25.9856 45.6042 25.5935 45.6028 25.1079L45.5861 15.8288C45.5847 15.3432 45.9782 14.9484 46.4637 14.9484H46.4651C46.9493 14.9484 47.3428 15.3405 47.3442 15.826L47.3609 25.1051C47.3623 25.5907 46.9688 25.9856 46.4833 25.9856C46.4833 25.9856 46.4833 25.9856 46.4819 25.9856Z"/>
<path d="M50.6679 25.9855C50.1823 25.9855 49.7902 25.5934 49.7888 25.1079L49.7721 12.9725C49.7721 12.4869 50.1642 12.0934 50.6498 12.092H50.6512C51.1367 12.092 51.5288 12.4841 51.5302 12.9697L51.547 25.1051C51.5484 25.5906 51.1549 25.9855 50.6679 25.9855C50.6693 25.9855 50.6693 25.9855 50.6679 25.9855Z"/>
<path d="M54.8539 25.9855C54.3698 25.9855 53.9763 25.5935 53.9749 25.1079L53.9581 17.6079C53.9567 17.1223 54.3502 16.7274 54.8358 16.7274H54.8372C55.3214 16.7274 55.7149 17.1195 55.7163 17.6051L55.733 25.1051C55.7344 25.5907 55.3409 25.9855 54.8553 25.9855C54.8553 25.9855 54.8553 25.9855 54.8539 25.9855Z"/>
<path d="M59.04 25.9856C58.5572 25.9856 58.1637 25.5949 58.1609 25.1107L58.1442 21.6628C58.1414 21.1772 58.5335 20.7823 59.0191 20.7795C59.0205 20.7795 59.0219 20.7795 59.0232 20.7795C59.506 20.7795 59.8995 21.1702 59.9023 21.6544L59.9191 25.1023C59.9219 25.5879 59.5298 25.9828 59.0442 25.9856C59.0442 25.9856 59.0414 25.9856 59.04 25.9856Z"/>
<path d="M42.2791 28.4135C41.7935 28.4135 41.4 28.02 41.4 27.5344V25.1763C41.4 24.6907 41.7935 24.2972 42.2791 24.2972C42.7647 24.2972 43.1582 24.6907 43.1582 25.1763V27.5344C43.1582 28.02 42.7647 28.4135 42.2791 28.4135Z"/>
<path d="M46.4651 35.3345H46.4637C45.9781 35.3331 45.5861 34.9396 45.5861 34.454L45.6028 25.1749C45.6042 24.6893 45.9977 24.2972 46.4819 24.2972H46.4833C46.9688 24.2986 47.3609 24.6921 47.3609 25.1777L47.3442 34.4568C47.3428 34.9424 46.9493 35.3345 46.4651 35.3345Z"/>
<path d="M50.6512 38.1907C50.6512 38.1907 50.6498 38.1907 50.6512 38.1907C50.1642 38.1907 49.7721 37.7958 49.7721 37.3103L49.7888 25.1749C49.7888 24.6893 50.1823 24.2972 50.6679 24.2972H50.6693C51.1549 24.2972 51.5484 24.6921 51.547 25.1777L51.5302 37.3131C51.5288 37.7986 51.1367 38.1907 50.6512 38.1907Z"/>
<path d="M54.8372 33.5554H54.8358C54.3502 33.554 53.9581 33.1605 53.9581 32.6749L53.9749 25.1749C53.9763 24.6907 54.3698 24.2972 54.8539 24.2972H54.8553C55.3409 24.2986 55.733 24.6921 55.733 25.1777L55.7163 32.6777C55.7149 33.1633 55.3214 33.5554 54.8372 33.5554Z"/>
<path d="M59.0232 29.5033C59.0219 29.5033 59.0205 29.5033 59.0191 29.5033C58.5335 29.5005 58.1414 29.1056 58.1442 28.62L58.1609 25.1721C58.1637 24.6879 58.5558 24.2972 59.04 24.2972C59.0414 24.2972 59.0428 24.2972 59.0442 24.2972C59.5298 24.3 59.9219 24.6949 59.9191 25.1805L59.9023 28.6284C59.8995 29.1126 59.506 29.5033 59.0232 29.5033Z"/>
</svg>
