<svg width="50" height="50" viewBox="0 0 50 50" fill="none" xmlns="http://www.w3.org/2000/svg">
<path d="M25.0008 46.0417C13.3985 46.0417 3.95898 36.6022 3.95898 24.9999C3.95898 13.3975 13.3985 3.95801 25.0008 3.95801C36.6032 3.95801 46.0427 13.3975 46.0427 24.9999C46.0427 36.6022 36.6032 46.0417 25.0008 46.0417ZM25.0008 5.35336C14.1671 5.35336 5.35433 14.1661 5.35433 24.9999C5.35433 35.8336 14.1671 44.6464 25.0008 44.6464C35.8346 44.6464 44.6474 35.8336 44.6474 24.9999C44.6474 14.1661 35.8346 5.35336 25.0008 5.35336Z" fill="#19171B"/>
<path d="M13.1913 18.5768C13.0192 18.5768 12.8472 18.514 12.7123 18.3861C12.432 18.1209 12.4204 17.6791 12.6855 17.4C12.8146 17.264 15.8948 14.0663 19.7413 14.7989C20.1204 14.8709 20.3681 15.2361 20.296 15.6151C20.2239 15.9942 19.8576 16.2419 19.4797 16.1698C16.3739 15.5779 13.7251 18.3314 13.6983 18.3593C13.5611 18.5035 13.3762 18.5768 13.1913 18.5768Z" fill="#696969"/>
<path d="M36.9862 18.5767C36.8014 18.5767 36.6176 18.5035 36.4804 18.3593C36.4444 18.3221 33.7816 15.5814 30.6979 16.1686C30.3188 16.2407 29.9537 15.9919 29.8816 15.6139C29.8095 15.236 30.0583 14.8698 30.4362 14.7977C34.2827 14.0651 37.363 17.2616 37.4921 17.3988C37.7572 17.6791 37.7444 18.1198 37.4653 18.3849C37.3304 18.514 37.1583 18.5767 36.9862 18.5767Z" fill="#696969"/>
<path d="M24.8716 38.0626C23.875 38.0626 22.9913 37.9254 22.2506 37.7394C19.9274 37.1568 18.4995 35.9964 18.4402 35.9475C18.1425 35.7022 18.0995 35.2627 18.3448 34.965C18.589 34.6685 19.0274 34.6243 19.325 34.8685C19.3378 34.879 20.6122 35.9022 22.6495 36.3999C25.3529 37.0592 28.0716 36.5289 30.7297 34.8208C31.0541 34.6127 31.4855 34.7069 31.6937 35.0313C31.9018 35.3557 31.8076 35.7871 31.4832 35.9952C29.0285 37.5731 26.7518 38.0626 24.8716 38.0626Z" fill="#19171B"/>
<path d="M17.5311 20.3254C16.4671 20.3254 15.6055 21.1871 15.6055 22.251C15.6055 23.315 16.4671 24.1766 17.5311 24.1766C18.595 24.1766 19.4566 23.315 19.4566 22.251C19.4566 21.1871 18.595 20.3254 17.5311 20.3254Z" fill="#19171B"/>
<path d="M32.6092 20.3254C31.5452 20.3254 30.6836 21.1871 30.6836 22.251C30.6836 23.315 31.5452 24.1766 32.6092 24.1766C33.6731 24.1766 34.5347 23.315 34.5347 22.251C34.5347 21.1871 33.672 20.3254 32.6092 20.3254Z" fill="#19171B"/>
</svg>
