<svg width="50" height="50" viewBox="0 0 50 50" fill="none" xmlns="http://www.w3.org/2000/svg">
<path d="M24.9996 46.0464C13.395 46.0464 3.95312 36.6045 3.95312 24.9999C3.95312 13.3952 13.395 3.95337 24.9996 3.95337C36.6043 3.95337 46.0461 13.3952 46.0461 24.9999C46.0461 36.6045 36.6043 46.0464 24.9996 46.0464ZM24.9996 5.34872C14.1624 5.34872 5.34847 14.1627 5.34847 24.9999C5.34847 35.8371 14.1624 44.651 24.9996 44.651C35.8368 44.651 44.6508 35.8371 44.6508 24.9999C44.6508 14.1627 35.8368 5.34872 24.9996 5.34872Z" fill="#696969"/>
<path d="M25.4293 29.686C21.6851 29.686 19.1735 31.8488 18.8828 35.0232V35.4186C18.8828 35.7325 19.1386 35.9767 19.441 35.9767H31.4177C31.7317 35.9767 31.9758 35.7209 31.9758 35.4186V35.0232C31.7549 31.7907 29.4758 29.686 25.4293 29.686Z" fill="#696969"/>
<path d="M34.9768 19.1161C34.8605 19.1161 34.7326 19.0812 34.6279 19.0231C32.7326 17.9185 30.8605 15.5347 30.7907 15.4301C30.5582 15.1277 30.6047 14.6859 30.9186 14.4533C31.221 14.2208 31.6628 14.2673 31.8954 14.5812C31.9186 14.6045 33.6745 16.8603 35.3373 17.8254C35.6745 18.0231 35.7791 18.4417 35.5931 18.7789C35.4419 18.9998 35.2093 19.1161 34.9768 19.1161Z" fill="#696969"/>
<path d="M17.1845 29.3372C17.1496 29.3372 17.1147 29.3372 17.0799 29.3256C16.6961 29.2675 16.4403 28.907 16.4985 28.5233C16.5799 27.9768 16.6961 25.1512 16.7426 23.3837C16.7543 23 17.0799 22.6977 17.4636 22.7093C17.8473 22.7209 18.1496 23.0465 18.138 23.4302C18.1264 23.8837 18.0101 27.9303 17.8822 28.7558C17.8124 29.093 17.5217 29.3372 17.1845 29.3372Z" fill="#696969"/>
<path d="M15.6975 39.2559C15.5929 39.2559 15.4882 39.2327 15.3952 39.1861C15.0464 39.0234 14.9068 38.6048 15.0696 38.2559C15.2906 37.8024 15.6161 35.4885 15.8138 33.5117C15.8487 33.128 16.1975 32.8489 16.5813 32.8838C16.965 32.9187 17.2441 33.2675 17.2092 33.6512C17.1394 34.3606 16.7673 37.9652 16.3371 38.8722C16.2092 39.1164 15.965 39.2559 15.6975 39.2559Z" fill="#696969"/>
<path d="M33.3028 29.3371C32.954 29.3371 32.64 29.0697 32.6051 28.7092C32.5935 28.5813 32.3145 25.6743 32.3145 23.4069C32.3145 23.0232 32.6284 22.7092 33.0121 22.7092C33.3958 22.7092 33.7098 23.0232 33.7098 23.4069C33.7098 25.6046 34.0005 28.5464 34.0005 28.5697C34.0354 28.9534 33.7563 29.2906 33.3726 29.3371C33.3377 29.3371 33.3144 29.3371 33.3028 29.3371Z" fill="#696969"/>
<path d="M34.6398 39.2559C34.3491 39.2559 34.0816 39.0814 33.977 38.7907C33.6746 37.907 33.163 34.1047 33.1049 33.6745C33.0583 33.2907 33.3258 32.9419 33.7095 32.8954C34.0932 32.8489 34.4421 33.1163 34.4886 33.5C34.6979 35.0698 35.0932 37.7791 35.2909 38.3372C35.4188 38.6977 35.2211 39.0931 34.8607 39.221C34.7909 39.2442 34.7095 39.2559 34.6398 39.2559Z" fill="#696969"/>
<path d="M17.6402 24.0814C19.053 24.0814 20.1983 22.936 20.1983 21.5232C20.1983 20.1104 19.053 18.9651 17.6402 18.9651C16.2273 18.9651 15.082 20.1104 15.082 21.5232C15.082 22.936 16.2273 24.0814 17.6402 24.0814Z" fill="#696969"/>
<path d="M32.7085 24.0814C34.1214 24.0814 35.2667 22.936 35.2667 21.5232C35.2667 20.1104 34.1214 18.9651 32.7085 18.9651C31.2957 18.9651 30.1504 20.1104 30.1504 21.5232C30.1504 22.936 31.2957 24.0814 32.7085 24.0814Z" fill="#696969"/>
<path d="M15.3945 19.1162C15.1503 19.1162 14.9177 18.9883 14.7898 18.7673C14.5922 18.4301 14.7084 18.0115 15.0456 17.8138C16.7084 16.8487 18.4643 14.5929 18.4875 14.5696C18.7201 14.2673 19.1619 14.2092 19.4643 14.4417C19.7666 14.6743 19.8247 15.1162 19.5922 15.4185C19.5108 15.5231 17.6503 17.9069 15.755 19.0115C15.6387 19.0929 15.5224 19.1162 15.3945 19.1162Z" fill="#696969"/>
</svg>
