<svg width="50" height="50" viewBox="0 0 50 50" fill="none" xmlns="http://www.w3.org/2000/svg">
<path d="M25.0008 46.0417C13.3985 46.0417 3.95898 36.6022 3.95898 24.9999C3.95898 13.3975 13.3985 3.95801 25.0008 3.95801C36.6032 3.95801 46.0427 13.3975 46.0427 24.9999C46.0427 36.6022 36.6032 46.0417 25.0008 46.0417ZM25.0008 5.35336C14.1671 5.35336 5.35433 14.1661 5.35433 24.9999C5.35433 35.8336 14.1671 44.6464 25.0008 44.6464C35.8346 44.6464 44.6474 35.8336 44.6474 24.9999C44.6474 14.1661 35.8346 5.35336 25.0008 5.35336Z" fill="#696969"/>
<path d="M34.2685 27.4104L30.6941 28.1895C30.6871 28.2534 30.6836 28.3174 30.6836 28.3837C30.6836 29.4476 31.5452 30.3092 32.6092 30.3092C33.6731 30.3092 34.5348 29.4476 34.5348 28.3837C34.5348 28.0278 34.4359 27.6964 34.2685 27.4104Z" fill="#696969"/>
<path d="M15.8717 27.4104C15.7031 27.6953 15.6055 28.0278 15.6055 28.3825C15.6055 29.4465 16.4671 30.3081 17.5311 30.3081C18.595 30.3081 19.4566 29.4465 19.4566 28.3825C19.4566 28.3174 19.4531 28.2523 19.4462 28.1883L15.8717 27.4104Z" fill="#696969"/>
<path d="M31.678 37.0721C31.6489 37.028 31.607 36.9838 31.5535 36.9407C31.5466 36.9349 31.5396 36.9291 31.5326 36.9233C31.528 36.9198 31.5233 36.9163 31.5175 36.9128C31.4733 36.8791 31.4268 36.85 31.3768 36.8256C30.507 36.3489 28.107 36.0059 25.2803 36.0059C22.4535 36.0059 20.0535 36.3489 19.1838 36.8256C19.1338 36.85 19.0873 36.8791 19.0431 36.9128C19.0384 36.9163 19.0338 36.9198 19.028 36.9233C19.021 36.9291 19.014 36.9349 19.007 36.9407C18.9535 36.9838 18.9117 37.028 18.8826 37.0721C18.7733 37.2152 18.707 37.3931 18.707 37.5873C18.707 38.0559 19.0861 38.4349 19.5547 38.4349H31.0035C31.4721 38.4349 31.8512 38.0559 31.8512 37.5873C31.8535 37.3931 31.7873 37.2152 31.678 37.0721Z" fill="#696969"/>
<path d="M20.5576 26.9721C20.5088 26.9721 20.4588 26.9674 20.4088 26.9558L12.6809 25.2825C12.3041 25.2011 12.0646 24.829 12.1471 24.4535C12.2285 24.0767 12.6006 23.8383 12.9762 23.9197L20.7041 25.593C21.0809 25.6744 21.3204 26.0465 21.2378 26.4221C21.1681 26.7488 20.8785 26.9721 20.5576 26.9721Z" fill="#696969"/>
<path d="M29.6172 26.972C29.2963 26.972 29.0067 26.7488 28.9358 26.422C28.8544 26.0453 29.0939 25.6743 29.4695 25.5929L37.1974 23.9197C37.5753 23.8383 37.9451 24.0778 38.0265 24.4534C38.1079 24.8302 37.8684 25.2011 37.4928 25.2825L29.7649 26.9557C29.716 26.9662 29.666 26.972 29.6172 26.972Z" fill="#696969"/>
</svg>
