<svg width="50" height="50" viewBox="0 0 50 50" fill="none" xmlns="http://www.w3.org/2000/svg">
<path d="M25.0008 46.0417C13.3985 46.0417 3.95898 36.6022 3.95898 24.9999C3.95898 13.3975 13.3985 3.95801 25.0008 3.95801C36.6032 3.95801 46.0427 13.3975 46.0427 24.9999C46.0427 36.6022 36.6032 46.0417 25.0008 46.0417ZM25.0008 5.35336C14.1671 5.35336 5.35433 14.1661 5.35433 24.9999C5.35433 35.8336 14.1671 44.6464 25.0008 44.6464C35.8346 44.6464 44.6474 35.8336 44.6474 24.9999C44.6474 14.1661 35.8346 5.35336 25.0008 5.35336Z" fill="#696969"/>
<path d="M13.3085 18.4605C13.1364 18.4605 12.9643 18.3977 12.8295 18.2698C12.5492 18.0047 12.5376 17.5629 12.8027 17.2838C12.9318 17.1477 16.012 13.9512 19.8585 14.6826C20.2376 14.7547 20.4853 15.1198 20.4132 15.4989C20.3411 15.878 19.9748 16.1256 19.5969 16.0535C16.4911 15.4617 13.8423 18.2152 13.8155 18.2431C13.6783 18.3873 13.4934 18.4605 13.3085 18.4605Z" fill="#696969"/>
<path d="M37.1023 18.4605C36.9174 18.4605 36.7337 18.3873 36.5965 18.2431C36.5523 18.1966 33.8918 15.4663 30.815 16.0524C30.436 16.1245 30.0709 15.8756 29.9988 15.4977C29.9267 15.1198 30.1755 14.7536 30.5534 14.6815C34.3999 13.9489 37.4802 17.1454 37.6093 17.2826C37.8744 17.5628 37.8616 18.0035 37.5825 18.2687C37.4465 18.3966 37.2744 18.4605 37.1023 18.4605Z" fill="#696969"/>
<path d="M17.6841 24.8839C18.8105 24.8839 19.7236 23.6136 19.7236 22.0467C19.7236 20.4797 18.8105 19.2095 17.6841 19.2095C16.5577 19.2095 15.6445 20.4797 15.6445 22.0467C15.6445 23.6136 16.5577 24.8839 17.6841 24.8839Z" fill="#696969"/>
<path d="M32.7231 24.8839C33.8495 24.8839 34.7627 23.6136 34.7627 22.0467C34.7627 20.4797 33.8495 19.2095 32.7231 19.2095C31.5967 19.2095 30.6836 20.4797 30.6836 22.0467C30.6836 23.6136 31.5967 24.8839 32.7231 24.8839Z" fill="#696969"/>
<path d="M25.1039 41.2603C27.0922 41.2603 28.7039 38.6365 28.7039 35.3998C28.7039 32.1631 27.0922 29.5393 25.1039 29.5393C23.1157 29.5393 21.5039 32.1631 21.5039 35.3998C21.5039 38.6365 23.1157 41.2603 25.1039 41.2603Z" fill="#696969"/>
</svg>
