<svg width="50" height="50" viewBox="0 0 50 50" fill="none" xmlns="http://www.w3.org/2000/svg">
<path d="M25.0008 46.0417C13.3985 46.0417 3.95898 36.6022 3.95898 24.9999C3.95898 13.3975 13.3985 3.95801 25.0008 3.95801C36.6032 3.95801 46.0427 13.3975 46.0427 24.9999C46.0427 36.6022 36.6032 46.0417 25.0008 46.0417ZM25.0008 5.35336C14.1671 5.35336 5.35433 14.1661 5.35433 24.9999C5.35433 35.8336 14.1671 44.6464 25.0008 44.6464C35.8346 44.6464 44.6474 35.8336 44.6474 24.9999C44.6474 14.1661 35.8346 5.35336 25.0008 5.35336Z" fill="#696969"/>
<path d="M13.1913 18.4606C13.0192 18.4606 12.8472 18.3978 12.7123 18.2699C12.432 18.0047 12.4204 17.5629 12.6855 17.2838C12.8146 17.1478 15.8948 13.9501 19.7413 14.6826C20.1204 14.7547 20.3681 15.1199 20.296 15.4989C20.2239 15.878 19.8576 16.1257 19.4797 16.0536C16.3739 15.4617 13.7251 18.2152 13.6983 18.2431C13.5611 18.3873 13.3762 18.4606 13.1913 18.4606Z" fill="#696969"/>
<path d="M36.9862 18.4605C36.8013 18.4605 36.6176 18.3873 36.4804 18.2431C36.4444 18.2059 33.7816 15.4652 30.6979 16.0524C30.3188 16.1245 29.9537 15.8756 29.8816 15.4977C29.8095 15.1198 30.0583 14.7536 30.4362 14.6815C34.2827 13.9489 37.363 17.1454 37.492 17.2826C37.7572 17.5629 37.7444 18.0035 37.4653 18.2687C37.3304 18.3977 37.1583 18.4605 36.9862 18.4605Z" fill="#696969"/>
<path d="M19.4598 35.0942C19.2481 35.0942 19.0388 34.9989 18.9028 34.8175C18.6714 34.5105 18.7307 34.0745 19.0365 33.8419C19.0888 33.8024 20.3516 32.8559 22.4481 32.3733C24.3667 31.9315 27.3911 31.8024 30.9016 33.7001C31.2411 33.8838 31.3667 34.307 31.183 34.6454C30.9993 34.9849 30.576 35.1105 30.2377 34.9268C27.7493 33.5814 25.2551 33.1745 22.8249 33.7175C21.0005 34.1245 19.89 34.9454 19.8784 34.9535C19.7528 35.0489 19.6051 35.0942 19.4598 35.0942Z" fill="#696969"/>
<path d="M17.5311 20.2092C16.4671 20.2092 15.6055 21.0709 15.6055 22.1348C15.6055 22.6836 15.8357 23.1778 16.2043 23.5278H18.8578C19.2264 23.1767 19.4566 22.6836 19.4566 22.1348C19.4566 21.0709 18.595 20.2092 17.5311 20.2092Z" fill="#696969"/>
<path d="M32.6092 20.2092C31.5452 20.2092 30.6836 21.0709 30.6836 22.1348C30.6836 22.6836 30.9138 23.1778 31.2824 23.5278H33.9359C34.3045 23.1767 34.5348 22.6836 34.5348 22.1348C34.5348 21.0709 33.672 20.2092 32.6092 20.2092Z" fill="#696969"/>
</svg>
