<svg width="64" height="64" viewBox="0 0 64 64" fill="none" xmlns="http://www.w3.org/2000/svg">
<path d="M27.9086 21.3835H14.8794C12.2062 21.3835 10.0317 19.209 10.0317 16.5359V16.0938C10.0317 13.4222 12.2062 11.2477 14.8794 11.2477H36.1378C38.8109 11.2477 40.9854 13.4222 40.9854 16.0938V16.32C40.9854 16.8127 40.585 17.2131 40.0924 17.2131C39.5997 17.2131 39.1994 16.8127 39.1994 16.32V16.0938C39.1994 14.406 37.8256 13.0337 36.1378 13.0337H14.8794C13.1916 13.0337 11.8178 14.406 11.8178 16.0938V16.5359C11.8178 18.2237 13.1916 19.5974 14.8794 19.5974H27.9086C28.4012 19.5974 28.8016 19.9978 28.8016 20.4905C28.8016 20.9831 28.4012 21.3835 27.9086 21.3835Z" fill="#19171B"/>
<path d="M22.3747 29.7332H10.8085C8.13691 29.7332 5.9624 27.5587 5.9624 24.8856V24.445C5.9624 21.7719 8.13691 19.5974 10.8085 19.5974H27.9084C28.4011 19.5974 28.8015 19.9978 28.8015 20.4904C28.8015 20.9831 28.4011 21.3835 27.9084 21.3835H10.8085C9.12073 21.3835 7.74845 22.7572 7.74845 24.445V24.8856C7.74845 26.5734 9.12073 27.9472 10.8085 27.9472H22.3747C22.8673 27.9472 23.2677 28.3476 23.2677 28.8402C23.2677 29.3329 22.8673 29.7332 22.3747 29.7332Z" fill="#19171B"/>
<path d="M21.8613 38.083H16.9631C16.908 38.083 16.8515 38.0815 16.7964 38.08C14.1724 37.9937 12.1155 35.8653 12.1155 33.2353V32.7948C12.1155 30.1217 14.29 27.9471 16.9631 27.9471H22.3748C22.8675 27.9471 23.2679 28.3475 23.2679 28.8402C23.2679 29.3328 22.8675 29.7332 22.3748 29.7332H16.9631C15.2753 29.7332 13.9015 31.107 13.9015 32.7948V33.2353C13.9015 34.8964 15.1994 36.2404 16.8574 36.2939C16.8946 36.2954 16.9289 36.2969 16.9631 36.2969H21.8613C22.354 36.2969 22.7544 36.6973 22.7544 37.1899C22.7544 37.6826 22.354 38.083 21.8613 38.083Z" fill="#19171B"/>
<path d="M25.7726 46.4298H10.8085C8.13691 46.4298 5.9624 44.2552 5.9624 41.5821V41.1416C5.9624 38.4685 8.13691 36.2939 10.8085 36.2939H21.8597C22.3524 36.2939 22.7527 36.6943 22.7527 37.187C22.7527 37.6796 22.3524 38.08 21.8597 38.08H10.8085C9.12073 38.08 7.74845 39.4538 7.74845 41.1416V41.5821C7.74845 43.2699 9.12073 44.6437 10.8085 44.6437H25.7726C26.2653 44.6437 26.6657 45.0441 26.6657 45.5367C26.6657 46.0294 26.2653 46.4298 25.7726 46.4298Z" fill="#19171B"/>
<path d="M39.3674 52.7524C29.0723 52.7524 20.6973 44.3773 20.6973 34.0823C20.6973 23.7872 29.0723 15.4121 39.3674 15.4121C49.6625 15.4121 58.0375 23.7872 58.0375 34.0823C58.0375 44.3773 49.6625 52.7524 39.3674 52.7524ZM39.3674 17.1967C30.0576 17.1967 22.4833 24.771 22.4833 34.0808C22.4833 43.3905 30.0576 50.9649 39.3674 50.9649C48.6772 50.9649 56.2515 43.3905 56.2515 34.0808C56.2515 24.771 48.6772 17.1967 39.3674 17.1967Z" fill="#19171B"/>
<path d="M39.3674 47.5014C31.9687 47.5014 25.9482 41.4809 25.9482 34.0822C25.9482 26.6835 31.9687 20.6631 39.3674 20.6631C46.7661 20.6631 52.7866 26.6835 52.7866 34.0822C52.7866 41.4809 46.7661 47.5014 39.3674 47.5014ZM39.3674 22.4491C32.9525 22.4491 27.7343 27.6674 27.7343 34.0822C27.7343 40.4971 32.9525 45.7154 39.3674 45.7154C45.7823 45.7154 51.0005 40.4971 51.0005 34.0822C51.0005 27.6674 45.7808 22.4491 39.3674 22.4491Z" fill="#19171B"/>
<path d="M33.4972 35.1687H31.665C31.1723 35.1687 30.772 34.7684 30.772 34.2757C30.772 33.783 31.1723 33.3827 31.665 33.3827H33.4972C33.6966 33.3827 33.8901 33.3112 34.027 33.1877C34.0925 33.1282 34.2027 33.0017 34.2027 32.829C34.2027 32.5284 33.8797 32.2738 33.4972 32.2738H31.665C31.1723 32.2738 30.772 31.8735 30.772 31.3808C30.772 30.8882 31.1723 30.4878 31.665 30.4878H33.4972C34.8709 30.4878 35.9887 31.5371 35.9887 32.829C35.9887 33.4675 35.7178 34.0658 35.2252 34.5124C34.7578 34.9365 34.1446 35.1687 33.4972 35.1687Z" fill="#19171B"/>
<path d="M31.665 37.6751C31.1723 37.6751 30.772 37.2747 30.772 36.7821V31.3823C30.772 30.8896 31.1723 30.4893 31.665 30.4893C32.1576 30.4893 32.558 30.8896 32.558 31.3823V36.7821C32.558 37.2747 32.1591 37.6751 31.665 37.6751Z" fill="#19171B"/>
<path d="M41.1919 37.6751H37.7478C37.2551 37.6751 36.8547 37.2747 36.8547 36.7821V31.3823C36.8547 30.8896 37.2551 30.4893 37.7478 30.4893C38.2404 30.4893 38.6408 30.8896 38.6408 31.3823V35.8891H41.1919C41.6845 35.8891 42.0849 36.2894 42.0849 36.7821C42.0849 37.2747 41.6845 37.6751 41.1919 37.6751Z" fill="#19171B"/>
<path d="M47.2172 37.6751C46.921 37.6751 46.6367 37.5278 46.4685 37.2688L44.5932 34.3903V36.7821C44.5932 37.2747 44.1928 37.6751 43.7002 37.6751C43.2075 37.6751 42.8071 37.2747 42.8071 36.7821V31.3823C42.8071 30.9864 43.0676 30.6381 43.4456 30.5265C43.8252 30.4148 44.233 30.5637 44.4488 30.8956L46.3242 33.7741V31.3823C46.3242 30.8896 46.7245 30.4893 47.2172 30.4893C47.7098 30.4893 48.1102 30.8896 48.1102 31.3823V36.7821C48.1102 37.178 47.8497 37.5263 47.4717 37.6379C47.3869 37.6632 47.302 37.6751 47.2172 37.6751Z" fill="#19171B"/>
</svg>
