<svg width="50" height="50" viewBox="0 0 50 50" fill="none" xmlns="http://www.w3.org/2000/svg">
<path d="M31.8404 38.3284C31.6112 38.3284 31.3835 38.2406 31.2094 38.0664C30.8849 37.7419 30.8626 37.2285 31.1439 36.8772C31.1617 36.5855 30.873 35.49 29.3042 33.2426C27.8799 31.202 25.811 28.7939 23.4802 26.4646C21.1495 24.1338 18.7428 22.0664 16.7022 20.6406C14.4548 19.0718 13.3608 18.7831 13.0676 18.8009C12.7178 19.0822 12.2029 19.0599 11.8784 18.7354C11.5301 18.3872 11.5301 17.8216 11.8784 17.4718C12.7789 16.5713 14.4711 17 17.2053 18.8218C19.4438 20.3131 22.1214 22.5784 24.7439 25.2009C27.3664 27.8234 29.6317 30.501 31.123 32.7395C32.9448 35.4737 33.3735 37.1659 32.473 38.0664C32.2974 38.242 32.0681 38.3284 31.8404 38.3284Z" fill="#19171B"/>
<path d="M41.134 39.3227C40.6413 39.3227 40.2409 38.9223 40.2409 38.4297C40.2409 34.1982 37.7464 32.1844 35.6538 31.2393C31.4819 29.3565 26.0716 30.2496 23.8242 32.2306C23.4536 32.5565 22.8895 32.5208 22.5636 32.1517C22.2376 31.7811 22.2733 31.217 22.6424 30.891C25.6862 28.2075 31.9805 27.6211 36.3876 29.611C40.0236 31.2527 42.027 34.3843 42.027 38.4297C42.027 38.9223 41.6266 39.3227 41.134 39.3227Z" fill="#19171B"/>
<path d="M18.4154 28.5721C18.2651 28.5721 18.1118 28.5334 17.9719 28.453C17.5447 28.2075 17.3974 27.6612 17.6429 27.2341C19.7594 23.5503 19.4841 15.7944 15.7021 10.5539C13.7836 7.89564 10.2561 4.97992 4.34135 6.18401C3.85763 6.28224 3.38582 5.97117 3.28758 5.48745C3.18935 5.00373 3.50191 4.53192 3.98414 4.43368C9.3274 3.34568 14.0039 5.1481 17.1503 9.50755C20.9948 14.8344 21.9295 23.3598 19.1908 28.1241C19.0256 28.4114 18.725 28.5721 18.4154 28.5721Z" fill="#19171B"/>
<path d="M31.8406 38.3283C31.6114 38.3283 31.3837 38.242 31.2095 38.0664C30.8612 37.7181 30.8598 37.1525 31.2095 36.8042L31.211 36.8027C31.5593 36.4544 32.1249 36.4544 32.4746 36.8027C32.8229 37.151 32.8229 37.7166 32.4746 38.0664C32.299 38.2405 32.0698 38.3283 31.8406 38.3283Z" fill="#19171B"/>
<path d="M12.5081 18.9944C12.2789 18.9944 12.0511 18.9081 11.877 18.7325C11.5287 18.3842 11.5272 17.8186 11.877 17.4703L11.8785 17.4689C12.2268 17.1206 12.7924 17.1206 13.1421 17.4689C13.4904 17.8171 13.4904 18.3827 13.1421 18.7325C12.965 18.9081 12.7358 18.9944 12.5081 18.9944Z" fill="#19171B"/>
<path d="M32.4716 36.8042C32.1471 36.4798 31.6366 36.4574 31.2868 36.7358C31.2764 36.7358 31.266 36.7372 31.2556 36.7387C30.9326 36.7402 29.8357 36.4277 27.6478 34.8991C25.6072 33.4747 23.199 31.4059 20.8697 29.0751C18.5404 26.7443 16.4716 24.3376 15.0457 22.2971C13.5172 20.1062 13.2046 19.0122 13.2061 18.6878C13.2076 18.6773 13.2076 18.6684 13.2091 18.658C13.4874 18.3082 13.4651 17.7962 13.1406 17.4732C12.7923 17.125 12.2268 17.125 11.877 17.4732C11.6284 17.7218 11.4855 18.0329 11.4409 18.4079L0.769257 46.6796C0.496885 47.3999 0.666559 48.1873 1.2113 48.732C1.58488 49.1056 2.07009 49.3021 2.57168 49.3021C2.80237 49.3021 3.03605 49.2604 3.26377 49.1741L31.528 38.5084C31.9075 38.4652 32.2201 38.3194 32.4716 38.0678C32.8199 37.7181 32.8199 37.1525 32.4716 36.8042ZM2.6327 47.5026C2.61037 47.5116 2.54191 47.5369 2.47493 47.4684C2.40647 47.3999 2.43177 47.333 2.4407 47.3106L12.2788 21.2403C12.5363 21.7181 12.8504 22.236 13.2254 22.8001C14.7168 25.0386 16.9821 27.7162 19.6046 30.3387C22.2271 32.9612 24.9047 35.2265 27.1432 36.7179C27.7058 37.093 28.2238 37.4085 28.7001 37.666L2.6327 47.5026Z" fill="#19171B"/>
<path d="M30.2479 23.1961C30.0365 23.1961 29.8237 23.1216 29.6525 22.9683C29.2849 22.6394 29.2537 22.0753 29.5826 21.7077C30.6468 20.517 32.1441 20.8117 33.2365 21.026C34.3186 21.2388 34.8678 21.2969 35.2161 20.9069C35.5644 20.517 35.4453 19.9797 35.1134 18.9274C34.7785 17.8647 34.3186 16.4091 35.3828 15.2199C36.447 14.0307 37.9443 14.3239 39.0367 14.5397C40.1188 14.7525 40.668 14.8106 41.0148 14.4206C41.3437 14.053 41.9078 14.0217 42.2754 14.3507C42.6431 14.6796 42.6743 15.2437 42.3454 15.6113C41.2812 16.8005 39.7839 16.5073 38.6914 16.2915C37.6094 16.0787 37.0602 16.0206 36.7134 16.4106C36.3651 16.8005 36.4842 17.3378 36.8161 18.3901C37.151 19.4528 37.6109 20.9084 36.5467 22.0976C35.4825 23.2868 33.9852 22.9936 32.8927 22.7793C31.8107 22.5665 31.2615 22.5084 30.9147 22.8984C30.7376 23.0948 30.4935 23.1961 30.2479 23.1961Z" fill="#19171B"/>
<path d="M26.335 17.1429C25.8558 17.1429 25.4584 16.7619 25.4435 16.2781C25.3914 14.6826 26.6788 13.8625 27.618 13.2627C28.5482 12.6688 28.9843 12.3325 28.9679 11.8101C28.9516 11.2876 28.4931 10.981 27.5272 10.4482C26.5508 9.91089 25.2143 9.17563 25.1622 7.5801C25.1101 5.98456 26.3975 5.16447 27.3367 4.56466C28.2669 3.97079 28.703 3.63442 28.6866 3.11349C28.6703 2.62084 29.0572 2.20856 29.5499 2.19219C30.0411 2.17731 30.4548 2.56279 30.4712 3.05545C30.5233 4.65098 29.2358 5.47107 28.2967 6.07089C27.3665 6.66475 26.9304 7.00112 26.9467 7.52205C26.9631 8.04447 27.4215 8.35256 28.3875 8.88391C29.3638 9.42122 30.7004 10.1565 30.7525 11.752C30.8046 13.3475 29.5171 14.1676 28.578 14.7675C27.6478 15.3613 27.2117 15.6977 27.228 16.2201C27.2444 16.7128 26.8574 17.125 26.3648 17.1414C26.3544 17.1414 26.3439 17.1429 26.335 17.1429Z" fill="#19171B"/>
<path d="M19.5196 4.30718C19.3648 4.30718 19.2071 4.26699 19.0642 4.18215C18.64 3.93062 18.5016 3.38141 18.7531 2.95871L19.8366 1.13694C20.0882 0.712753 20.6374 0.574335 21.0601 0.82587C21.4843 1.07741 21.6227 1.62661 21.3712 2.04931L20.2876 3.87108C20.1209 4.1509 19.8247 4.30718 19.5196 4.30718Z" fill="#19171B"/>
<path d="M38.4994 47.8808C38.1973 47.8808 37.9026 47.7275 37.7344 47.4506C37.4784 47.0294 37.6123 46.4802 38.035 46.2242L40.3122 44.843C40.7334 44.587 41.2826 44.721 41.5386 45.1437C41.7946 45.5649 41.6607 46.1141 41.238 46.3701L38.9608 47.7513C38.8164 47.8391 38.6572 47.8808 38.4994 47.8808Z" fill="#19171B"/>
<path d="M47.4505 37.4637C47.2957 37.4637 47.138 37.4235 46.9951 37.3386C46.5709 37.0871 46.4325 36.5379 46.684 36.1152L47.7676 34.2934C48.0191 33.8692 48.5668 33.7308 48.991 33.9824C49.4152 34.2339 49.5536 34.7831 49.3021 35.2058L48.2185 37.0276C48.0518 37.3074 47.7542 37.4637 47.4505 37.4637Z" fill="#19171B"/>
<path d="M1.46577 28.2908C1.23656 28.2908 1.00884 28.203 0.834696 28.0289C0.486416 27.6806 0.486416 27.115 0.834696 26.7652L2.33349 25.2665C2.68177 24.9182 3.24735 24.9182 3.59712 25.2665C3.9454 25.6147 3.9454 26.1803 3.59712 26.5301L2.09833 28.0289C1.9227 28.203 1.69498 28.2908 1.46577 28.2908Z" fill="#19171B"/>
<path d="M43.3232 6.31791C43.094 6.31791 42.8663 6.23009 42.6921 6.05596L41.1933 4.55865C40.8451 4.21037 40.8451 3.64479 41.1933 3.29502C41.5416 2.94674 42.1072 2.94674 42.457 3.29502L43.9558 4.79381C44.304 5.14209 44.304 5.70768 43.9558 6.05744C43.7801 6.23158 43.5524 6.31791 43.3232 6.31791Z" fill="#19171B"/>
<path d="M24.8406 47.8852C24.4819 47.8852 24.144 47.6679 24.0071 47.3137L23.2421 45.3371C23.0635 44.8772 23.2927 44.3592 23.7526 44.1821C24.2125 44.0035 24.7304 44.2327 24.9076 44.6926L25.6726 46.6692C25.8512 47.1291 25.622 47.6471 25.1621 47.8242C25.0564 47.8658 24.9477 47.8852 24.8406 47.8852Z" fill="#19171B"/>
<path d="M7.21092 15.3941C7.00404 15.3941 6.79715 15.3227 6.62897 15.1783L5.02301 13.7956C4.64943 13.4741 4.60627 12.91 4.92925 12.5364C5.25074 12.1629 5.81483 12.1197 6.18841 12.4427L7.79436 13.8254C8.16795 14.1469 8.21111 14.711 7.88813 15.0845C7.7125 15.2899 7.46246 15.3941 7.21092 15.3941Z" fill="#19171B"/>
<path d="M45.0542 25.4748C44.6643 25.4748 44.3056 25.2173 44.1954 24.8229L43.6209 22.7824C43.487 22.3076 43.7638 21.8149 44.2386 21.681C44.7134 21.547 45.206 21.8238 45.34 22.2986L45.9145 24.3392C46.0485 24.814 45.7716 25.3066 45.2968 25.4406C45.2164 25.4644 45.1346 25.4748 45.0542 25.4748Z" fill="#19171B"/>
</svg>
