<svg width="50" height="42" viewBox="0 0 50 42" fill="none" xmlns="http://www.w3.org/2000/svg">
<path d="M31.8241 11.9849C32.1039 11.5786 32.0027 11.0234 31.5964 10.7421L27.4379 7.86807L27.3918 1.1317C27.3888 0.640536 26.9899 0.244629 26.4987 0.244629C26.4973 0.244629 26.4943 0.244629 26.4928 0.244629C26.0001 0.247606 25.6028 0.650954 25.6057 1.1436L25.6548 8.34435C25.6563 8.63607 25.8007 8.90695 26.0403 9.07365L30.5813 12.2111C30.7361 12.3183 30.9132 12.3689 31.0889 12.3689C31.3717 12.3719 31.65 12.2364 31.8241 11.9849Z" fill="#19171B"/>
<path d="M37.014 33.7836C36.7565 33.3624 36.2058 33.2315 35.7861 33.4889L31.379 36.1888C31.0188 36.4106 30.8626 36.8541 31.0054 37.2515L32.4075 41.1615C32.5385 41.5261 32.8823 41.7539 33.2484 41.7539C33.3481 41.7539 33.4508 41.7375 33.5506 41.7018C34.0149 41.5351 34.2561 41.0246 34.0894 40.5602L32.9329 37.3334L36.7208 35.013C37.1405 34.7541 37.273 34.2034 37.014 33.7836Z" fill="#19171B"/>
<path d="M49.6042 29.2262C49.6117 29.2113 49.6176 29.1979 49.6236 29.183C49.6295 29.1681 49.6355 29.1517 49.6414 29.1369C49.6459 29.1264 49.6504 29.116 49.6533 29.1056C49.6533 29.1041 49.6548 29.1026 49.6548 29.0996C49.6593 29.0833 49.6637 29.0669 49.6682 29.0505C49.6712 29.0386 49.6757 29.0252 49.6771 29.0133C49.6801 29.0014 49.6801 28.9895 49.6831 28.9776C49.6861 28.9597 49.6891 28.9434 49.6905 28.9255C49.6905 28.9225 49.6905 28.9181 49.6905 28.9151C49.698 28.8302 49.692 28.7454 49.6757 28.665V28.6635L47.717 19.132C47.3984 17.5841 46.1929 16.38 44.6435 16.0645L38.1467 14.7428V9.57815C38.1467 7.5376 37.0245 5.67862 35.2191 4.72606L26.914 0.350248C26.5836 0.176109 26.1787 0.226713 25.9019 0.475271L20.6345 5.19936C20.6092 5.22169 20.5854 5.2455 20.5631 5.27081L15.0442 11.4788L7.18412 8.79974C6.89686 8.7015 6.57984 8.75657 6.3417 8.94411C6.10356 9.13164 5.97705 9.42783 6.00681 9.72997L7.03974 20.54L0.517698 28.2647C0.514721 28.2676 0.513233 28.2706 0.511745 28.2736C0.481977 28.3108 0.453698 28.3495 0.429884 28.3912C0.426907 28.3956 0.425419 28.4001 0.422442 28.4031C0.376303 28.4864 0.34207 28.5772 0.32421 28.674C0.322721 28.6799 0.321233 28.6844 0.321233 28.6903C0.313791 28.7335 0.309326 28.7782 0.309326 28.8243C0.309326 28.8332 0.309326 28.8422 0.309326 28.8496C0.309326 28.8615 0.309326 28.8749 0.309326 28.8868C0.310815 28.9195 0.31528 28.9523 0.319745 28.985C0.319745 28.988 0.321233 28.9925 0.321233 28.9955C0.330163 29.0416 0.34207 29.0877 0.356954 29.1309C0.358442 29.1339 0.358442 29.1354 0.359931 29.1383C0.376303 29.1845 0.39714 29.2291 0.420954 29.2723C0.422442 29.2753 0.425419 29.2797 0.426908 29.2827C0.45221 29.3259 0.480489 29.3661 0.511745 29.4048C0.513233 29.4062 0.513233 29.4077 0.514722 29.4092L10.53 41.4278C10.5389 41.4382 10.5478 41.4472 10.5568 41.4561C10.5672 41.468 10.5776 41.4784 10.588 41.4889C10.6059 41.5067 10.6252 41.5231 10.6431 41.538C10.652 41.5454 10.661 41.5543 10.6699 41.5618C10.6982 41.5841 10.7264 41.6035 10.7577 41.6213C10.7681 41.6273 10.78 41.6332 10.7904 41.6392C10.8128 41.6511 10.8336 41.6615 10.8559 41.6719C10.8678 41.6779 10.8812 41.6823 10.8931 41.6868C10.9155 41.6957 10.9378 41.7032 10.9601 41.7106C10.972 41.7151 10.9854 41.7181 10.9988 41.721C11.0226 41.727 11.0479 41.7315 11.0717 41.7359C11.0837 41.7374 11.0956 41.7404 11.106 41.7419C11.1387 41.7463 11.173 41.7478 11.2072 41.7493C11.2102 41.7493 11.2131 41.7493 11.2161 41.7493C11.2176 41.7493 11.2176 41.7493 11.2191 41.7493H33.25C33.3155 41.7493 33.381 41.7419 33.445 41.727L42.3871 39.7236C42.6133 39.673 42.8098 39.5376 42.9378 39.3441L49.5477 29.3288C49.5521 29.3214 49.5566 29.3125 49.5625 29.305C49.5715 29.2902 49.5819 29.2753 49.5893 29.2589C49.5938 29.2515 49.5983 29.2395 49.6042 29.2262ZM41.6444 38.0641L33.1503 39.9662H14.7525L25.4241 34.2107C25.8587 33.977 26.021 33.4353 25.7858 33.0007C25.5521 32.5661 25.0103 32.4038 24.5757 32.639L11.4334 39.7266L3.02412 29.6369L12.5452 29.1205L11.4721 34.0589C11.3679 34.5411 11.673 35.0159 12.1553 35.1216C12.2193 35.135 12.2833 35.1424 12.3458 35.1424C12.7566 35.1424 13.1272 34.8567 13.218 34.4384L14.5397 28.354C14.5992 28.0816 14.5277 27.7973 14.3462 27.586C14.1661 27.3746 13.8967 27.26 13.6183 27.2734L3.21463 27.8375L8.6457 21.4048C8.80049 21.2217 8.87491 20.9835 8.85258 20.7439L7.91491 10.937L15.0278 13.3616C15.3687 13.4777 15.7452 13.378 15.9834 13.1101L21.8639 6.49574L26.6312 2.21964L34.3871 6.30671C35.6046 6.9482 36.3607 8.20141 36.3607 9.57815V14.8961L26.2085 19.4773C25.9837 19.5785 25.8111 19.769 25.7307 20.0027L23.7274 25.858C23.5681 26.3253 23.8167 26.8328 24.284 26.9921C24.3793 27.0249 24.4775 27.0412 24.5728 27.0412C24.9434 27.0412 25.2902 26.8075 25.4182 26.4369L27.2965 20.9463L37.3594 16.4068L44.2877 17.8163C45.1346 17.9889 45.7925 18.6468 45.9666 19.4922L47.6202 27.5428L41.9197 25.7761C41.6548 25.6942 41.3661 25.7404 41.1398 25.8996L37.4904 28.4805C37.087 28.7648 36.9917 29.3229 37.2775 29.7248C37.4516 29.9703 37.727 30.1028 38.0068 30.1028C38.1854 30.1028 38.3655 30.0492 38.5218 29.9391L41.8111 27.6128L47.397 29.3452L41.6444 38.0641Z" fill="#19171B"/>
</svg>
