<svg width="36" height="58" viewBox="0 0 36 58" fill="none" xmlns="http://www.w3.org/2000/svg">
<path d="M33.6682 24.6317C33.5432 24.6317 33.4152 24.6049 33.2946 24.5484L19.8115 18.3121C18.6609 17.7793 17.3393 17.7793 16.1888 18.3121L2.7056 24.5469C2.2576 24.7538 1.72774 24.5588 1.52085 24.1108C1.31397 23.6628 1.50895 23.1329 1.95695 22.9261L15.4401 16.6898C17.0684 15.9367 18.9348 15.9367 20.5616 16.6898L34.0448 22.9261C34.4928 23.1329 34.6877 23.6643 34.4809 24.1108C34.329 24.4397 34.0061 24.6317 33.6682 24.6317Z" fill="#19171B"/>
<path d="M35.2266 40.9814C34.8039 40.5602 33.8409 38.865 34.0344 32.2477C34.1445 28.4717 34.5762 25.0425 34.5955 24.8981C34.6 24.8609 34.603 24.8222 34.603 24.785C34.603 20.8289 33.189 16.9963 30.6201 13.9958C28.2 11.1679 24.8988 9.23743 21.2776 8.51111L18.853 0.923386C18.7354 0.552781 18.3901 0.302734 18.0017 0.302734C17.6132 0.302734 17.2694 0.554269 17.1503 0.923386L14.7258 8.51259C11.1045 9.23892 7.80334 11.1693 5.38324 13.9972C2.81431 16.9993 1.40036 20.8304 1.40036 24.7865C1.40036 24.8237 1.40334 24.8624 1.4078 24.8996C1.41227 24.9353 1.8558 28.4479 1.96743 32.2328C2.16241 38.862 1.19943 40.5587 0.775242 40.9814C0.468638 41.288 0.425475 41.7703 0.674033 42.126L11.2906 57.3148C11.5168 57.6378 11.9276 57.7747 12.3027 57.6512C12.6778 57.5277 12.9263 57.1734 12.9159 56.779L12.3831 37.3781C12.3741 37.0313 12.1643 36.7217 11.8472 36.5833L8.04594 34.9297C7.87478 34.8553 7.76464 34.6871 7.76464 34.4996V31.368C7.76464 31.1716 7.87627 31.054 7.94175 31.0019C8.00724 30.9498 8.14715 30.8679 8.33468 30.9111L14.5308 32.3727C14.8121 32.4397 15.0085 32.6972 14.9996 32.9814L14.6543 42.8374C14.6454 43.1068 14.757 43.3658 14.9609 43.5429L17.4167 45.6787C17.7531 45.9705 18.2532 45.9705 18.5896 45.6787L21.0454 43.5429C21.2493 43.3658 21.3609 43.1068 21.352 42.8374L21.0067 32.9844C20.9978 32.6957 21.1957 32.4382 21.4755 32.3727L27.6686 30.9111C27.8606 30.8665 27.9991 30.9483 28.066 31.0004C28.1315 31.0525 28.2432 31.1701 28.2432 31.3665V34.4981C28.2432 34.6841 28.133 34.8538 27.9618 34.9282L24.1605 36.5818L24.162 36.5848C23.8911 36.7024 23.6352 36.9643 23.6232 37.4332L23.0919 56.779C23.0815 57.1734 23.33 57.5277 23.7051 57.6512C23.7974 57.681 23.8912 57.6958 23.9849 57.6958C24.2707 57.6958 24.546 57.5589 24.7172 57.3148L35.3338 42.126C35.5764 41.7703 35.5332 41.288 35.2266 40.9814ZM24.9538 53.8514C25.0833 49.1511 25.3259 40.3102 25.3885 37.9958L28.6688 36.5684C29.4919 36.2097 30.0247 35.3985 30.0247 34.5011V31.3695C30.0247 30.6789 29.7152 30.0345 29.1734 29.6043C28.6316 29.1742 27.9365 29.0164 27.2579 29.1727L21.0618 30.6343C19.9574 30.8947 19.1819 31.9068 19.2177 33.0439L19.5481 42.4743L18.0002 43.8212L16.4523 42.4743L16.7827 33.041C16.8184 31.9068 16.043 30.8947 14.9386 30.6343L8.73803 29.1712C8.0638 29.0149 7.36724 29.1727 6.82696 29.6028C6.2852 30.033 5.97562 30.6759 5.97562 31.368V34.4996C5.97562 35.3971 6.50696 36.2082 7.33003 36.5669L10.6104 37.9943L11.045 53.8499L2.50771 41.6348C3.48259 40.0452 3.88892 36.9405 3.7505 32.1956C3.64482 28.5535 3.24445 25.2225 3.18343 24.7314C3.20873 17.4741 8.40613 11.3554 15.5578 10.1721C15.5622 10.1721 15.5652 10.1706 15.5697 10.1692C15.5831 10.1662 15.595 10.1632 15.6069 10.1602C15.6232 10.1558 15.6411 10.1528 15.6575 10.1483C15.6649 10.1468 15.6724 10.1439 15.6798 10.1409C15.7006 10.1349 15.7215 10.1275 15.7408 10.12C15.7423 10.12 15.7438 10.1185 15.7453 10.1185C15.8242 10.0858 15.8971 10.0441 15.9626 9.99204C15.9656 9.98906 15.9685 9.98608 15.973 9.98311C15.9909 9.96822 16.0087 9.95334 16.0266 9.93697C16.0385 9.92655 16.0489 9.91464 16.0593 9.90273C16.0683 9.8938 16.0772 9.88487 16.0846 9.87594C16.098 9.86106 16.1099 9.84469 16.1218 9.82832C16.1263 9.82236 16.1323 9.81492 16.1367 9.80897C16.1471 9.79408 16.1576 9.77771 16.1665 9.76134C16.1725 9.75241 16.1784 9.74348 16.1829 9.73455C16.1903 9.72115 16.1978 9.70776 16.2037 9.69287C16.2097 9.67948 16.2171 9.66757 16.2231 9.65418C16.2275 9.64376 16.232 9.63185 16.2365 9.61994C16.2424 9.60357 16.2498 9.5872 16.2558 9.56934C16.2573 9.56636 16.2573 9.56339 16.2588 9.5619L18.0002 4.13083L19.7356 9.56339C19.7356 9.56487 19.7371 9.56636 19.7386 9.56934C19.752 9.60952 19.7684 9.64971 19.7877 9.68692C19.7922 9.69585 19.7966 9.70329 19.8011 9.71222C19.8205 9.74794 19.8413 9.78218 19.8651 9.81492C19.8696 9.82087 19.874 9.82683 19.8785 9.83278C19.9008 9.86106 19.9231 9.88785 19.9485 9.91464C19.9544 9.92059 19.9589 9.92655 19.9648 9.9325C19.9931 9.96078 20.0244 9.98608 20.0571 10.0114C20.0631 10.0159 20.069 10.0203 20.075 10.0248C20.1419 10.0724 20.2164 10.1096 20.2982 10.1379C20.3071 10.1409 20.3161 10.1439 20.3235 10.1468C20.3607 10.1587 20.3994 10.1692 20.4396 10.1751C20.4411 10.1751 20.4426 10.1751 20.4441 10.1766H20.4456C27.5957 11.3628 32.7886 17.4785 32.8139 24.7359C32.7544 25.2166 32.3555 28.5714 32.2484 32.1703C32.107 36.9316 32.5148 40.0452 33.4897 41.6393L24.9538 53.8514Z" fill="#19171B"/>
</svg>
