<svg width="64" height="64" viewBox="0 0 64 64" fill="none" xmlns="http://www.w3.org/2000/svg">
<path d="M33.1281 26.6286C33.0969 27.3579 32.4822 27.9235 31.7529 27.8922C31.0236 27.8609 30.4595 27.2462 30.4893 26.5169C30.5205 25.7876 31.1352 25.2221 31.8645 25.2533C32.5938 25.2846 33.1594 25.8993 33.1281 26.6286ZM36.1257 32.4124C36.0037 31.6935 36.4874 31.0118 37.2048 30.8883C37.9237 30.7662 38.6053 31.25 38.7289 31.9674C38.8509 32.6862 38.3687 33.3679 37.6498 33.4915C36.9309 33.615 36.2478 33.1313 36.1257 32.4124ZM27.5066 32.7428C26.9916 33.2578 26.1551 33.2578 25.6401 32.7428C25.1252 32.2278 25.1252 31.3914 25.6401 30.8764C26.1551 30.3614 26.9916 30.3614 27.5066 30.8764C28.0215 31.3914 28.0215 32.2278 27.5066 32.7428ZM33.1237 38.3614C32.6087 38.8764 31.7722 38.8764 31.2573 38.3614C30.7423 37.8464 30.7423 37.01 31.2573 36.495C31.7722 35.98 32.6087 35.98 33.1237 36.495C33.6401 37.01 33.6401 37.8449 33.1237 38.3614Z" fill="#19171B"/>
<path d="M32.1904 39.686C31.5876 39.686 31.0206 39.4508 30.5934 39.0251C29.7138 38.1455 29.7138 36.7122 30.5934 35.8326C31.4745 34.9515 32.9063 34.953 33.7874 35.8326C34.6671 36.7137 34.6671 38.1455 33.7874 39.0266C33.3603 39.4508 32.7932 39.686 32.1904 39.686ZM32.1904 37.0456C32.0922 37.0456 31.994 37.0828 31.9195 37.1572C31.7707 37.3061 31.7707 37.5487 31.9195 37.6975C32.0178 37.7957 32.1309 37.8091 32.1904 37.8091C32.25 37.8091 32.3631 37.7943 32.4613 37.6975C32.6101 37.5487 32.6101 37.3061 32.4613 37.1557C32.3869 37.0828 32.2887 37.0456 32.1904 37.0456ZM37.422 34.4499C36.9592 34.4499 36.5067 34.307 36.1212 34.0331C35.6286 33.6849 35.3026 33.1654 35.2014 32.5701C35.1002 31.9762 35.2356 31.3779 35.5854 30.8852C35.9352 30.3926 36.4531 30.0666 37.0485 29.9654C37.6423 29.8642 38.2421 29.9996 38.7333 30.3494C39.2259 30.6977 39.5519 31.2171 39.6531 31.8125C39.7543 32.4063 39.6189 33.0047 39.2691 33.4973C38.9208 33.99 38.4014 34.3159 37.806 34.4171C37.678 34.438 37.55 34.4499 37.422 34.4499ZM37.428 31.808C37.4072 31.808 37.3848 31.8095 37.3625 31.814C37.2271 31.8378 37.1497 31.9211 37.1154 31.9703C37.0812 32.0194 37.0276 32.1191 37.0499 32.256C37.0738 32.3915 37.1571 32.4703 37.2062 32.5046C37.2539 32.5388 37.3551 32.5924 37.492 32.5701C37.6274 32.5463 37.7063 32.4629 37.7406 32.4138C37.7748 32.3662 37.8284 32.2649 37.806 32.128C37.7837 31.9911 37.6989 31.9137 37.6498 31.8795C37.6081 31.8497 37.5322 31.808 37.428 31.808ZM26.5718 34.0659C25.9928 34.0659 25.4154 33.8456 24.9748 33.405C24.5476 32.9779 24.314 32.4108 24.314 31.808C24.314 31.2052 24.5491 30.6382 24.9748 30.211C25.8544 29.3314 27.2877 29.3314 28.1674 30.211C29.047 31.0906 29.047 32.5239 28.1674 33.4036C27.7283 33.8456 27.1508 34.0659 26.5718 34.0659ZM26.5718 31.427C26.4736 31.427 26.3754 31.4642 26.3009 31.5386C26.2027 31.6369 26.1893 31.75 26.1893 31.8095C26.1893 31.869 26.2042 31.9822 26.3009 32.0804C26.4498 32.2292 26.6924 32.2292 26.8412 32.0804C26.9901 31.9316 26.9901 31.6889 26.8412 31.5386C26.7683 31.4642 26.6701 31.427 26.5718 31.427ZM31.8109 28.8313C31.7781 28.8313 31.7454 28.8313 31.7141 28.8298C31.1114 28.8045 30.5547 28.5455 30.1469 28.102C29.7391 27.6584 29.5277 27.0809 29.553 26.4796C29.6051 25.2354 30.6589 24.2649 31.9047 24.3185C33.1489 24.3706 34.1179 25.4259 34.0658 26.6702C34.0405 27.2729 33.7815 27.8296 33.338 28.2374C32.9167 28.6214 32.378 28.8313 31.8109 28.8313ZM31.8079 26.1894C31.6799 26.1894 31.5921 26.2519 31.5504 26.2906C31.5073 26.3308 31.4328 26.4186 31.4269 26.5555C31.418 26.7669 31.5817 26.9455 31.793 26.9544C31.9314 26.9604 32.0252 26.8934 32.0684 26.8532C32.1115 26.813 32.186 26.7252 32.1919 26.5883C32.1979 26.4499 32.1309 26.3561 32.0907 26.3129C32.0505 26.2698 31.9627 26.1954 31.8258 26.1894C31.8198 26.1909 31.8139 26.1894 31.8079 26.1894Z" fill="#19171B"/>
<path d="M20.8638 53.5413C18.1982 53.5413 15.5325 52.5262 13.5023 50.4975C9.44355 46.4387 9.44355 39.8348 13.5023 35.7746L35.7758 13.5026C37.742 11.5364 40.3556 10.4529 43.1373 10.4529C45.9176 10.4529 48.5327 11.5364 50.4988 13.5026C52.465 15.4687 53.5485 18.0823 53.5485 20.864C53.5485 23.6458 52.465 26.2594 50.4988 28.2255L28.2238 50.4975C26.1952 52.5277 23.5295 53.5413 20.8638 53.5413ZM14.8285 49.1714C18.1565 52.4994 23.5712 52.4994 26.8992 49.1714L49.1712 26.8994C50.7831 25.2875 51.6702 23.1442 51.6702 20.864C51.6702 18.5839 50.7831 16.4406 49.1712 14.8287C47.5593 13.2168 45.416 12.3297 43.1358 12.3297C40.8556 12.3297 38.7124 13.2168 37.1005 14.8287L14.8285 37.1022C11.5005 40.4287 11.5005 45.8434 14.8285 49.1714Z" fill="#19171B"/>
<path d="M16.4224 31.1457L13.5022 28.2255C9.4449 24.1667 9.4449 17.5613 13.5022 13.5026C15.4683 11.5364 18.0819 10.4529 20.8637 10.4529C23.6455 10.4529 26.259 11.5349 28.2252 13.5026L31.1736 16.451L29.8475 17.7772L26.899 14.8287C25.2871 13.2168 23.1439 12.3282 20.8622 12.3282C18.582 12.3282 16.4403 13.2153 14.8269 14.8272C11.5003 18.1552 11.5003 23.5699 14.8269 26.8979L17.747 29.8181L16.4224 31.1457Z" fill="#19171B"/>
<path d="M43.1358 53.5413C40.4701 53.5413 37.8044 52.5263 35.7758 50.4976L32.802 47.5239L34.1281 46.1977L37.1019 49.1715C40.4299 52.4995 45.8431 52.4995 49.1711 49.1715C52.4991 45.8435 52.4991 40.4303 49.1711 37.1023L46.3134 34.2446L47.6396 32.9185L50.4973 35.7761C54.556 39.8349 54.556 46.4388 50.4973 50.4976C48.4671 52.5263 45.8014 53.5413 43.1358 53.5413Z" fill="#19171B"/>
</svg>
