<svg width="64" height="64" viewBox="0 0 64 64" fill="none" xmlns="http://www.w3.org/2000/svg">
<path d="M15.168 45.2688C15.165 45.2688 15.162 45.2688 15.1576 45.2688C14.6649 45.2629 14.269 44.8595 14.2735 44.3669C14.3062 41.3336 16.8394 38.8644 19.075 36.6869C20.7032 35.1003 22.3866 33.4586 22.2229 32.2813C21.9892 30.6024 20.2538 29.5561 18.4156 28.4473C18.1879 28.3103 17.9602 28.1734 17.7354 28.035C17.3157 27.776 17.1847 27.2253 17.4437 26.8056C17.7027 26.3859 18.2519 26.2549 18.6731 26.5139C18.8934 26.6493 19.1151 26.7833 19.3384 26.9187C21.3551 28.1347 23.6413 29.5144 23.9925 32.0357C24.2813 34.109 22.3583 35.9829 20.3222 37.9669C18.3352 39.9033 16.0848 42.0971 16.0595 44.3877C16.0551 44.8759 15.6562 45.2688 15.168 45.2688Z" fill="#19171B"/>
<path d="M30.8986 55.043C26.0509 55.043 21.5412 53.4921 17.9006 50.5183C17.3886 50.1001 16.9227 49.6714 16.5164 49.2458C16.1756 48.8886 16.189 48.323 16.5462 47.9836C16.9034 47.6428 17.469 47.6562 17.8083 48.0134C18.164 48.387 18.5763 48.7635 19.0318 49.1371C23.2811 52.608 28.855 53.9505 34.7281 52.9176C40.6504 51.8757 46.1603 48.5492 50.2444 43.5498C58.6418 33.2711 58.3055 19.0497 49.4943 11.8504C41.6163 5.4147 29.2241 6.70958 20.669 14.8614C20.3118 15.2022 19.7462 15.1874 19.4068 14.8316C19.066 14.4744 19.0809 13.9088 19.4381 13.5695C23.869 9.34847 29.4385 6.68875 35.1211 6.08298C40.9019 5.46679 46.4089 7.02363 50.6269 10.4692C60.2016 18.2921 60.6511 33.6387 51.6301 44.6809C47.2766 50.0108 41.3841 53.562 35.0407 54.6783C33.6401 54.9209 32.256 55.043 30.8986 55.043Z" fill="#19171B"/>
<path d="M44.7582 37.2421C43.5332 37.2421 42.2994 36.8358 41.2783 36.0023C38.9267 34.0808 38.577 30.6054 40.4984 28.2538C42.4199 25.9022 45.8953 25.5524 48.2469 27.4739C50.5985 29.3954 50.9483 32.8707 49.0268 35.2224C47.9403 36.5515 46.3552 37.2421 44.7582 37.2421ZM42.408 34.6181C43.9961 35.916 46.3463 35.6793 47.6441 34.0912C48.942 32.5031 48.7053 30.1545 47.1172 28.8551C45.5291 27.5573 43.179 27.7939 41.8811 29.382C40.5833 30.9716 40.8199 33.3202 42.408 34.6181Z" fill="#19171B"/>
<path d="M31.5399 49.1862C30.1037 49.1862 28.7239 48.6966 27.5972 47.7753C26.3038 46.7185 25.5001 45.2227 25.3319 43.5602C25.1638 41.8992 25.6549 40.2724 26.7102 38.979C28.8906 36.3088 32.8363 35.9129 35.5064 38.0934C36.7998 39.1501 37.6036 40.6459 37.7717 42.3085C37.9384 43.9695 37.4488 45.5963 36.3935 46.8897C35.3368 48.1831 33.841 48.9868 32.1784 49.155C31.9641 49.1758 31.7513 49.1862 31.5399 49.1862ZM31.5548 38.4714C30.2599 38.4714 28.974 39.0311 28.0929 40.1101C27.3383 41.0344 26.9885 42.1953 27.1076 43.3831C27.2266 44.5693 27.8011 45.6394 28.7254 46.394C29.6497 47.1486 30.8106 47.4984 31.9984 47.3793C33.1846 47.2603 34.2547 46.6858 35.0078 45.7615C35.7624 44.8372 36.1122 43.6763 35.9931 42.4886C35.8741 41.3023 35.2996 40.2322 34.3753 39.4776C33.5492 38.8004 32.549 38.4714 31.5548 38.4714Z" fill="#19171B"/>
<path d="M41.8084 22.3881C40.7487 22.3881 39.683 22.0368 38.8004 21.3149C36.7673 19.6539 36.4637 16.6474 38.1247 14.6128C39.7857 12.5797 42.7922 12.276 44.8268 13.9371C46.86 15.5981 47.1636 18.6046 45.5026 20.6392C44.5604 21.7927 43.1896 22.3881 41.8084 22.3881ZM41.8159 14.653C40.9526 14.653 40.0953 15.0251 39.5074 15.7454C38.4685 17.0165 38.6575 18.8948 39.9286 19.9337C41.1997 20.9726 43.078 20.7836 44.1169 19.5125C45.1558 18.2414 44.9667 16.3631 43.6957 15.3242C43.1435 14.8718 42.4782 14.653 41.8159 14.653Z" fill="#19171B"/>
<path d="M27.2431 24.6816C26.3203 24.6816 25.4317 24.3661 24.7084 23.7752C23.8779 23.0965 23.3599 22.1336 23.2527 21.0664C23.1456 19.9977 23.4596 18.9529 24.1398 18.1209C25.5419 16.4048 28.078 16.1488 29.7941 17.5509C30.6246 18.2296 31.1426 19.1925 31.2498 20.2597C31.3569 21.3283 31.0429 22.3732 30.3627 23.2052C29.684 24.0357 28.721 24.5536 27.6539 24.6608C27.5169 24.6757 27.38 24.6816 27.2431 24.6816ZM27.2535 18.432C26.606 18.432 25.9631 18.7118 25.5225 19.2506C25.1445 19.712 24.9703 20.2939 25.0299 20.8863C25.0894 21.4802 25.3766 22.0145 25.838 22.391C26.2994 22.7691 26.8799 22.9432 27.4738 22.8837C28.0676 22.8242 28.6019 22.5369 28.9785 22.0755C29.3565 21.6141 29.5307 21.0322 29.4712 20.4398C29.4116 19.8459 29.1244 19.3116 28.663 18.935C28.2492 18.5957 27.7491 18.432 27.2535 18.432Z" fill="#19171B"/>
<path d="M14.3256 44.7122C14.2333 44.7122 14.1396 44.6973 14.0458 44.6675C13.577 44.5128 13.3225 44.0082 13.4772 43.5394C14.0726 41.7325 14.6903 39.494 15.3139 36.8863C16.1191 33.5211 16.899 29.6543 17.5718 25.7027C18.5332 20.038 19.2105 14.5578 19.4784 10.2742C19.7239 6.33453 19.5617 4.49788 19.4025 3.66885C18.9783 4.39816 18.2192 6.07853 17.1505 9.87834C15.9896 14.0101 14.8198 19.4054 13.8568 25.0716C12.6333 32.2694 11.8743 39.2082 11.8266 43.6316C11.8207 44.1213 11.4218 44.5142 10.9336 44.5142C10.9306 44.5142 10.9277 44.5142 10.9232 44.5142C10.4305 44.5083 10.0346 44.1049 10.0406 43.6108C10.0912 39.0311 10.8398 32.1652 12.096 24.771C13.1498 18.5704 14.4268 12.7836 15.6949 8.47778C16.32 6.35536 16.9109 4.69732 17.4542 3.54681C18.0004 2.38885 18.7059 1.2309 19.785 1.41397C20.864 1.59853 21.1468 2.92467 21.2823 4.19723C21.4162 5.46085 21.4266 7.22309 21.3165 9.43183C21.0918 13.9148 20.3878 19.7983 19.334 26.0004C18.6553 29.9907 17.8665 33.8977 17.0523 37.3001C16.4168 39.9554 15.7857 42.2415 15.174 44.096C15.0505 44.4741 14.7022 44.7122 14.3256 44.7122Z" fill="#19171B"/>
<path d="M12.5141 62.6009C12.4591 62.6009 12.404 62.5965 12.3504 62.586C10.2399 62.1916 8.38986 60.221 7.14111 57.0344C6.06799 54.2988 5.63637 51.0631 6.01293 48.5879C6.32697 46.5205 7.4492 44.6884 9.09088 43.5617C10.4721 42.6136 12.0513 42.2712 13.5381 42.5987C16.8036 43.3176 18.7445 47.1486 17.8648 51.139C17.5076 52.7583 16.7471 53.9966 15.9419 55.3079C14.8806 57.0359 13.7837 58.8219 13.3997 61.8225C13.3685 62.0666 13.239 62.2869 13.0395 62.4312C12.8847 62.5429 12.7017 62.6009 12.5141 62.6009ZM12.4248 44.2627C11.6419 44.2627 10.8382 44.5261 10.1 45.0322C8.86465 45.8805 8.01776 47.2737 7.77665 48.8558C7.44474 51.0378 7.83767 53.9222 8.80213 56.3825C9.60139 58.4216 10.6641 59.8668 11.8027 60.5053C12.34 57.7592 13.4369 55.9717 14.4193 54.3732C15.1753 53.1423 15.8272 52.0796 16.1205 50.755C16.7872 47.7261 15.4566 44.8506 13.1541 44.343C12.9145 44.2895 12.6704 44.2627 12.4248 44.2627Z" fill="#19171B"/>
<path d="M16.1845 37.9877C16.131 37.9877 16.0759 37.9832 16.0208 37.9728L11.2804 37.0932C10.7951 37.0039 10.4751 36.5365 10.5659 36.0528C10.6567 35.5691 11.1226 35.2476 11.6063 35.3369L16.3468 36.2165C16.832 36.3058 17.152 36.7732 17.0612 37.2569C16.9823 37.687 16.6072 37.9877 16.1845 37.9877Z" fill="#19171B"/>
</svg>
