<svg width="12" height="12" viewBox="0 0 12 12" fill="none" xmlns="http://www.w3.org/2000/svg">
<path d="M7.64979 10.4756C7.49726 10.4756 7.34309 10.446 7.19569 10.3849C6.75431 10.2022 6.46912 9.77716 6.46912 9.302V8.29345C6.46912 8.03454 6.67896 7.82461 6.93787 7.82461C7.19678 7.82461 7.40671 8.03454 7.40671 8.29345V9.302C7.40671 9.44244 7.50989 9.50021 7.55421 9.51861C7.59934 9.53729 7.71525 9.56979 7.81632 9.46863L10.9256 6.35546C11.1088 6.17208 11.1088 5.87371 10.9256 5.69033L7.81632 2.57726C7.71525 2.4761 7.59934 2.50851 7.5543 2.52718C7.50989 2.54558 7.40671 2.60345 7.40671 2.74389V5.57754C7.40671 6.09454 6.98612 6.51513 6.46912 6.51513H0.46875C0.209839 6.51513 0 6.30529 0 6.04638C0 5.78747 0.209839 5.57754 0.46875 5.57754H6.46912V2.74389C6.46912 2.26873 6.75431 1.84356 7.19569 1.66091C7.63862 1.47762 8.14262 1.57723 8.47962 1.91469L11.5889 5.02776C12.137 5.57653 12.137 6.46935 11.5889 7.01812L8.47962 10.1312C8.25477 10.3563 7.95557 10.4755 7.64979 10.4756Z" fill="#727272"/>
</svg>
