<svg id="Layer_1" data-name="Layer 1" xmlns="http://www.w3.org/2000/svg" xmlns:xlink="http://www.w3.org/1999/xlink" viewBox="0 0 2070 540"><defs><style>.cls-1{fill:#fff;}.cls-2{fill:url(#linear-gradient);}.cls-3{fill:url(#linear-gradient-2);}</style><linearGradient id="linear-gradient" x1="364.64" y1="158.79" x2="142.21" y2="381.21" gradientUnits="userSpaceOnUse"><stop offset="0.25" stop-color="gray"/><stop offset="1" stop-color="#fff"/></linearGradient><linearGradient id="linear-gradient-2" x1="200.6" y1="100.4" x2="423.02" y2="322.82" gradientUnits="userSpaceOnUse"><stop offset="0" stop-color="#1a1a1a"/><stop offset="0.75" stop-color="#a6a6a6"/></linearGradient></defs><path class="cls-1" d="M639.56,377.17l-6.85-26.77H574.4l-6.53,26.13q-1.27,5.1-3.43,6.77c-1.43,1.12-3.9,1.67-7.4,1.67H522.78q-7.8,0-7.8-5.89c0,.11.4-1.22,1.19-4s1.25-4.25,1.36-4.46l69.61-207.58q1.92-5.1,4.15-6.77c1.48-1.12,3.87-1.67,7.17-1.67h32q5.73,0,7.72,1.75t3.75,6.69L711.4,373.82q1,4.31,1,4.62,0,6.54-9.08,6.53H650.07q-4.94,0-6.93-1.51T639.56,377.17Zm-54.17-62.93h36.32l-18.64-69.62Z"/><path class="cls-1" d="M794.56,163.06V375.89q0,9.09-9.08,9.08H733.87c-3,0-5.24-.63-6.78-1.91s-2.31-3.77-2.31-7.49V163.06c0-3.5.64-5.79,1.92-6.85s3.55-1.59,6.85-1.59h52.57c3.5,0,5.79.63,6.85,1.91S794.56,160,794.56,163.06Z"/><path class="cls-1" d="M987.79,214.36q-2.55-3.83-3.83-5.82c-.85-1.32-2.18-3.32-4-6a42.27,42.27,0,0,0-8.44-10,15,15,0,0,0-9.72-3.34q-8.61,0-14.34,8.52t-8.28,22.14a156.15,156.15,0,0,0-2.55,28.76,196.71,196.71,0,0,0,4,41.26q4,18.48,12.9,30.43Q966.76,337,984.28,337a28.63,28.63,0,0,0,12.82-2.63,69.79,69.79,0,0,0,11.71-7.56,73.05,73.05,0,0,1,8.29-6,12.15,12.15,0,0,1,5.73-1.19,16.34,16.34,0,0,1,12,4.86q4.86,4.86,4.86,13.46,0,10-8.2,22.54T1006.82,382q-16.49,8.91-40.54,8.92-35.85,0-59-17.37A96.22,96.22,0,0,1,874,328.34a172.76,172.76,0,0,1-10.11-59.5q0-38.86,14.81-66.11T917,162.1q23.5-13.38,49-13.38,24.52,0,41.26,8.37T1032,177.4q8,11.94,8,22.62a25.36,25.36,0,0,1-8,19.2q-8,7.56-21,7.56-8.12,0-13.38-2.94A31.21,31.21,0,0,1,987.79,214.36Z"/><path class="cls-1" d="M1191.06,258.64v91.45q0,14.66-4.46,20.86-4.45,5.74-19,12.35t-43.33,6.61a168.08,168.08,0,0,1-35.13-3.58,59.1,59.1,0,0,1-28.59-14.58q-11.79-11-11.79-31.22,0-31.38,24.25-43.41T1132.59,280V262.31a40,40,0,0,0-1.89-13.46q-1.9-5.17-8.87-5.18-5.68,0-8.3,3a31.5,31.5,0,0,0-5,9.08q-4,10.83-8.76,15.85t-17,5q-12.9,0-20-7.57a24.56,24.56,0,0,1-7.09-17.29q0-9.71,7.49-18.71a50.36,50.36,0,0,1,19.59-14.1q19.13-8,52.57-8,17.21,0,29.55,4a35.57,35.57,0,0,1,19.36,14.66,36.7,36.7,0,0,1,5.58,13.14A86,86,0,0,1,1191.06,258.64Zm-58.47,79.66V305.64a59.55,59.55,0,0,0-11.39,4.06,20.06,20.06,0,0,0-6.81,6.13q-5.85,8-5.85,21.83,0,8.93,3.48,14.58t9.5,5.65q7.43,0,9.26-5.33T1132.59,338.3Z"/><path class="cls-1" d="M1278.52,254.36v122.8c0,3.3-.59,5.42-1.75,6.38s-3.4,1.43-6.69,1.43h-47q-4.93,0-6.53-1.75t-1.59-6.69V243.67a43.44,43.44,0,0,1,1-11q1-3.66,5.5-6.93t14.65-6.77a120.58,120.58,0,0,1,20.24-4.78q11.31-1.75,21-2.47t17.53-.72a111.2,111.2,0,0,1,19.83,1.83,40.3,40.3,0,0,1,19.12,9.53q9,7.71,9,23.6,0,10.65-5.82,18.11t-16.48,7.47q-9.24,0-13.15-4.7T1300,252q-1.92-6-3.91-8.36t-7.09-2.31c-4.56,0-7.46,1.06-8.68,3.19S1278.52,249.89,1278.52,254.36Z"/><path class="cls-1" d="M1471.44,297.27l-73.12,11.45a31.42,31.42,0,0,0,9.4,16.29,38.09,38.09,0,0,0,14.65,8.43,52.27,52.27,0,0,0,14.82,2.31,37.12,37.12,0,0,0,23.42-7.79,85.44,85.44,0,0,1,8.92-7.58,10.73,10.73,0,0,1,6-1.68,10.55,10.55,0,0,1,8.44,4q3.36,4,3.35,11,0,8-5.42,21.26t-19.35,24.3q-13.95,11-37.52,11a104.86,104.86,0,0,1-28.2-4.14,60.55,60.55,0,0,1-26-14.82q-8.76-8.76-17.13-26.28t-8.36-46.52q0-30,11.31-49.78t29.07-28.92a78.83,78.83,0,0,1,36.24-9.08q18.17,0,31.23,7.5A59.58,59.58,0,0,1,1473.83,237a78.57,78.57,0,0,1,10.51,22.32,73.11,73.11,0,0,1,3,19q0,11.16-4.46,14.51A25.46,25.46,0,0,1,1471.44,297.27Zm-77.74-18.55,33.93-5.15a62.4,62.4,0,0,0-3.82-18.52q-3-7.56-12.11-7.56Q1393.7,247.49,1393.7,278.72Z"/><path class="cls-1" d="M1556,375.57v-205q0-8.45,3.18-11.31,4.3-4.14,25.25-5.82t39.43-1.67q28.35,0,50.74,5.42a71.33,71.33,0,0,1,37.2,21.9q14.82,16.49,14.81,47.08,0,26-11.15,42.77a64.61,64.61,0,0,1-29.87,24.53q-18.72,7.73-41.82,7.73-4,0-19-.64v76c0,3.51-.75,5.79-2.23,6.85s-3.88,1.59-7.17,1.59h-50.66c-3.4,0-5.71-.71-6.93-2.15S1556,379,1556,375.57Zm68.82-183.68V261c1.38,0,2.57,0,3.58.08s2.1.14,3.27.24q11.46,0,17.28-6.37a27.64,27.64,0,0,0,7.17-13.54,75.69,75.69,0,0,0,1.36-14q0-35.85-27.41-35.84c-1.27,0-2.25,0-2.94.08S1625.69,191.79,1624.84,191.89Z"/><path class="cls-1" d="M1802.62,254.36v122.8c0,3.3-.58,5.42-1.75,6.38s-3.4,1.43-6.69,1.43h-47q-4.93,0-6.53-1.75t-1.59-6.69V243.67a42.88,42.88,0,0,1,1-11q1-3.66,5.49-6.93t14.66-6.77a120.45,120.45,0,0,1,20.23-4.78q11.31-1.75,21-2.47T1819,211a111.39,111.39,0,0,1,19.84,1.83,40.27,40.27,0,0,1,19.11,9.53q9,7.71,9,23.6,0,10.65-5.81,18.11t-16.49,7.47q-9.24,0-13.14-4.7t-7.41-14.9c-1.27-4-2.58-6.82-3.9-8.36s-3.69-2.31-7.09-2.31q-6.86,0-8.68,3.19C1803.23,246.6,1802.62,249.89,1802.62,254.36Z"/><path class="cls-1" d="M2025.17,296.56v.32q0,32-11.15,53.05T1985,380.43a81.71,81.71,0,0,1-38.79,9.48q-32,0-54.48-22t-22.47-65.8q0-19.9,3.59-33.21a92.35,92.35,0,0,1,9.8-23.66q11.14-17.69,28-26a82.54,82.54,0,0,1,37-8.29q24.06,0,41.34,11.23a72.06,72.06,0,0,1,26.37,30.83Q2024.38,272.66,2025.17,296.56Zm-65.63-.88q0-14.31-1-24.49-.8-7.31-1.67-11.61a24.58,24.58,0,0,0-3.18-8,7.37,7.37,0,0,0-6.62-3.74c-3.71,0-6.32,2.15-7.8,6.44a72,72,0,0,0-3.19,16.3q-1.27,12.42-1.27,34.84,0,19.25,2,30.86t9.32,11.61q8.44,0,10.91-12.57T1959.54,295.68Z"/><path class="cls-2" d="M452.24,246.39l-93.17-93.17h0l-82-82a33.39,33.39,0,0,0-47.22,0l-82,82h0L54.61,246.39a33.39,33.39,0,0,0,0,47.22L113,352a33.38,33.38,0,0,0,47.21,0l61.69-61.69a44.51,44.51,0,0,1,63,0L346.59,352a33.39,33.39,0,0,0,47.22,0l58.43-58.43A33.39,33.39,0,0,0,452.24,246.39Z"/><path class="cls-3" d="M349,354.44,147.77,153.22l84.44-84.43a30,30,0,0,1,42.43,0l180,180a30,30,0,0,1,0,42.42l-63.23,63.23A30,30,0,0,1,349,354.44Z"/><rect class="cls-1" x="208.2" y="149.69" width="90.44" height="90.44" rx="20" transform="translate(212.05 -122.11) rotate(45)"/><rect class="cls-1" x="178.72" y="312.07" width="149.41" height="149.41" rx="30" transform="translate(347.72 -65.91) rotate(45)"/></svg>