<svg width="221" height="222" viewBox="0 0 221 222" fill="none" xmlns="http://www.w3.org/2000/svg">
<g opacity="0.1">
<path d="M110.458 116.412C113.424 116.412 115.829 114.008 115.829 111.041C115.829 108.075 113.424 105.67 110.458 105.67C107.492 105.67 105.087 108.075 105.087 111.041C105.087 114.008 107.492 116.412 110.458 116.412Z" fill="white"/>
<path d="M126.204 115.932C128.905 115.932 131.094 113.742 131.094 111.041C131.094 108.34 128.905 106.151 126.204 106.151C123.503 106.151 121.313 108.34 121.313 111.041C121.313 113.742 123.503 115.932 126.204 115.932Z" fill="white"/>
<path d="M120.276 128.243C122.977 128.243 125.167 126.054 125.167 123.353C125.167 120.652 122.977 118.462 120.276 118.462C117.575 118.462 115.386 120.652 115.386 123.353C115.386 126.054 117.575 128.243 120.276 128.243Z" fill="white"/>
<path d="M106.954 131.283C109.655 131.283 111.844 129.093 111.844 126.392C111.844 123.691 109.655 121.502 106.954 121.502C104.253 121.502 102.063 123.691 102.063 126.392C102.063 129.093 104.253 131.283 106.954 131.283Z" fill="white"/>
<path d="M96.2717 122.72C98.9485 122.72 101.119 120.55 101.119 117.873C101.119 115.196 98.9485 113.026 96.2717 113.026C93.5948 113.026 91.4248 115.196 91.4248 117.873C91.4248 120.55 93.5948 122.72 96.2717 122.72Z" fill="white"/>
<path d="M96.2717 109.013C98.9244 109.013 101.075 106.862 101.075 104.209C101.075 101.557 98.9244 99.4062 96.2717 99.4062C93.619 99.4062 91.4685 101.557 91.4685 104.209C91.4685 106.862 93.619 109.013 96.2717 109.013Z" fill="white"/>
<path d="M106.954 100.493C109.607 100.493 111.757 98.3428 111.757 95.6901C111.757 93.0374 109.607 90.8869 106.954 90.8869C104.301 90.8869 102.151 93.0374 102.151 95.6901C102.151 98.3428 104.301 100.493 106.954 100.493Z" fill="white"/>
<path d="M120.276 103.578C122.953 103.578 125.123 101.408 125.123 98.7316C125.123 96.0547 122.953 93.8847 120.276 93.8847C117.6 93.8847 115.43 96.0547 115.43 98.7316C115.43 101.408 117.6 103.578 120.276 103.578Z" fill="white"/>
<path d="M141.95 115.146C144.217 115.146 146.054 113.308 146.054 111.041C146.054 108.775 144.217 106.937 141.95 106.937C139.683 106.937 137.845 108.775 137.845 111.041C137.845 113.308 139.683 115.146 141.95 115.146Z" fill="white"/>
<path d="M138.831 128.809C141.098 128.809 142.935 126.972 142.935 124.705C142.935 122.438 141.098 120.601 138.831 120.601C136.564 120.601 134.726 122.438 134.726 124.705C134.726 126.972 136.564 128.809 138.831 128.809Z" fill="white"/>
<path d="M130.093 139.767C132.36 139.767 134.197 137.929 134.197 135.662C134.197 133.396 132.36 131.558 130.093 131.558C127.826 131.558 125.989 133.396 125.989 135.662C125.989 137.929 127.826 139.767 130.093 139.767Z" fill="white"/>
<path d="M117.466 145.848C119.733 145.848 121.571 144.01 121.571 141.744C121.571 139.477 119.733 137.639 117.466 137.639C115.2 137.639 113.362 139.477 113.362 141.744C113.362 144.01 115.2 145.848 117.466 145.848Z" fill="white"/>
<path d="M103.451 145.848C105.718 145.848 107.556 144.01 107.556 141.744C107.556 139.477 105.718 137.639 103.451 137.639C101.185 137.639 99.3472 139.477 99.3472 141.744C99.3472 144.01 101.185 145.848 103.451 145.848Z" fill="white"/>
<path d="M90.8247 139.723C93.0673 139.723 94.8853 137.905 94.8853 135.662C94.8853 133.42 93.0673 131.602 90.8247 131.602C88.5821 131.602 86.764 133.42 86.764 135.662C86.764 137.905 88.5821 139.723 90.8247 139.723Z" fill="white"/>
<path d="M82.0853 128.766C84.3279 128.766 86.1459 126.948 86.1459 124.705C86.1459 122.462 84.3279 120.644 82.0853 120.644C79.8427 120.644 78.0247 122.462 78.0247 124.705C78.0247 126.948 79.8427 128.766 82.0853 128.766Z" fill="white"/>
<path d="M78.9662 115.058C81.1847 115.058 82.9831 113.26 82.9831 111.041C82.9831 108.823 81.1847 107.024 78.9662 107.024C76.7477 107.024 74.9492 108.823 74.9492 111.041C74.9492 113.26 76.7477 115.058 78.9662 115.058Z" fill="white"/>
<path d="M82.0854 101.394C84.3039 101.394 86.1024 99.596 86.1024 97.3775C86.1024 95.159 84.3039 93.3605 82.0854 93.3605C79.8669 93.3605 78.0685 95.159 78.0685 97.3775C78.0685 99.596 79.8669 101.394 82.0854 101.394Z" fill="white"/>
<path d="M90.8247 90.4372C93.0432 90.4372 94.8417 88.6387 94.8417 86.4202C94.8417 84.2017 93.0432 82.4033 90.8247 82.4033C88.6062 82.4033 86.8077 84.2017 86.8077 86.4202C86.8077 88.6387 88.6062 90.4372 90.8247 90.4372Z" fill="white"/>
<path d="M103.451 84.3559C105.67 84.3559 107.468 82.5575 107.468 80.339C107.468 78.1205 105.67 76.322 103.451 76.322C101.233 76.322 99.4344 78.1205 99.4344 80.339C99.4344 82.5575 101.233 84.3559 103.451 84.3559Z" fill="white"/>
<path d="M117.466 84.3996C119.709 84.3996 121.527 82.5816 121.527 80.339C121.527 78.0963 119.709 76.2783 117.466 76.2783C115.224 76.2783 113.406 78.0963 113.406 80.339C113.406 82.5816 115.224 84.3996 117.466 84.3996Z" fill="white"/>
<path d="M130.093 90.4809C132.336 90.4809 134.154 88.6628 134.154 86.4202C134.154 84.1776 132.336 82.3596 130.093 82.3596C127.85 82.3596 126.032 84.1776 126.032 86.4202C126.032 88.6628 127.85 90.4809 130.093 90.4809Z" fill="white"/>
<path d="M138.831 101.438C141.073 101.438 142.891 99.6201 142.891 97.3775C142.891 95.1348 141.073 93.3168 138.831 93.3168C136.588 93.3168 134.77 95.1348 134.77 97.3775C134.77 99.6201 136.588 101.438 138.831 101.438Z" fill="white"/>
<path d="M157.696 114.359C159.528 114.359 161.014 112.874 161.014 111.041C161.014 109.209 159.528 107.723 157.696 107.723C155.863 107.723 154.378 109.209 154.378 111.041C154.378 112.874 155.863 114.359 157.696 114.359Z" fill="white"/>
<path d="M155.597 128.284C157.43 128.284 158.916 126.798 158.916 124.966C158.916 123.133 157.43 121.647 155.597 121.647C153.765 121.647 152.279 123.133 152.279 124.966C152.279 126.798 153.765 128.284 155.597 128.284Z" fill="white"/>
<path d="M149.487 140.969C151.32 140.969 152.805 139.483 152.805 137.651C152.805 135.818 151.32 134.333 149.487 134.333C147.655 134.333 146.169 135.818 146.169 137.651C146.169 139.483 147.655 140.969 149.487 140.969Z" fill="white"/>
<path d="M139.91 151.292C141.742 151.292 143.228 149.806 143.228 147.974C143.228 146.141 141.742 144.656 139.91 144.656C138.077 144.656 136.592 146.141 136.592 147.974C136.592 149.806 138.077 151.292 139.91 151.292Z" fill="white"/>
<path d="M127.717 158.332C129.549 158.332 131.035 156.847 131.035 155.014C131.035 153.182 129.549 151.696 127.717 151.696C125.884 151.696 124.398 153.182 124.398 155.014C124.398 156.847 125.884 158.332 127.717 158.332Z" fill="white"/>
<path d="M113.988 161.464C115.821 161.464 117.306 159.979 117.306 158.146C117.306 156.314 115.821 154.828 113.988 154.828C112.156 154.828 110.67 156.314 110.67 158.146C110.67 159.979 112.156 161.464 113.988 161.464Z" fill="white"/>
<path d="M99.9474 160.369C101.756 160.369 103.222 158.903 103.222 157.095C103.222 155.286 101.756 153.82 99.9474 153.82C98.139 153.82 96.673 155.286 96.673 157.095C96.673 158.903 98.139 160.369 99.9474 160.369Z" fill="white"/>
<path d="M86.8401 155.225C88.6485 155.225 90.1145 153.759 90.1145 151.95C90.1145 150.142 88.6485 148.676 86.8401 148.676C85.0317 148.676 83.5657 150.142 83.5657 151.95C83.5657 153.759 85.0317 155.225 86.8401 155.225Z" fill="white"/>
<path d="M75.8309 146.445C77.6393 146.445 79.1053 144.979 79.1053 143.17C79.1053 141.362 77.6393 139.896 75.8309 139.896C74.0225 139.896 72.5565 141.362 72.5565 143.17C72.5565 144.979 74.0225 146.445 75.8309 146.445Z" fill="white"/>
<path d="M67.8989 134.768C69.6832 134.768 71.1296 133.321 71.1296 131.537C71.1296 129.753 69.6832 128.306 67.8989 128.306C66.1147 128.306 64.6682 129.753 64.6682 131.537C64.6682 133.321 66.1147 134.768 67.8989 134.768Z" fill="white"/>
<path d="M63.7494 121.313C65.5337 121.313 66.9801 119.866 66.9801 118.082C66.9801 116.298 65.5337 114.851 63.7494 114.851C61.9651 114.851 60.5187 116.298 60.5187 118.082C60.5187 119.866 61.9651 121.313 63.7494 121.313Z" fill="white"/>
<path d="M63.7494 107.231C65.5337 107.231 66.9801 105.785 66.9801 104.001C66.9801 102.216 65.5337 100.77 63.7494 100.77C61.9651 100.77 60.5187 102.216 60.5187 104.001C60.5187 105.785 61.9651 107.231 63.7494 107.231Z" fill="white"/>
<path d="M67.8989 93.7763C69.6832 93.7763 71.1296 92.3298 71.1296 90.5456C71.1296 88.7613 69.6832 87.3148 67.8989 87.3148C66.1147 87.3148 64.6682 88.7613 64.6682 90.5456C64.6682 92.3298 66.1147 93.7763 67.8989 93.7763Z" fill="white"/>
<path d="M75.8311 82.1428C77.6153 82.1428 79.0618 80.6964 79.0618 78.9121C79.0618 77.1278 77.6153 75.6814 75.8311 75.6814C74.0468 75.6814 72.6003 77.1278 72.6003 78.9121C72.6003 80.6964 74.0468 82.1428 75.8311 82.1428Z" fill="white"/>
<path d="M86.84 73.3647C88.6242 73.3647 90.0707 71.9183 90.0707 70.134C90.0707 68.3497 88.6242 66.9033 86.84 66.9033C85.0557 66.9033 83.6093 68.3497 83.6093 70.134C83.6093 71.9183 85.0557 73.3647 86.84 73.3647Z" fill="white"/>
<path d="M99.9474 68.2201C101.732 68.2201 103.178 66.7737 103.178 64.9894C103.178 63.2051 101.732 61.7587 99.9474 61.7587C98.1631 61.7587 96.7167 63.2051 96.7167 64.9894C96.7167 66.7737 98.1631 68.2201 99.9474 68.2201Z" fill="white"/>
<path d="M113.988 67.167C115.772 67.167 117.219 65.7205 117.219 63.9362C117.219 62.152 115.772 60.7055 113.988 60.7055C112.204 60.7055 110.757 62.152 110.757 63.9362C110.757 65.7205 112.204 67.167 113.988 67.167Z" fill="white"/>
<path d="M127.716 70.3006C129.501 70.3006 130.947 68.8542 130.947 67.0699C130.947 65.2856 129.501 63.8392 127.716 63.8392C125.932 63.8392 124.486 65.2856 124.486 67.0699C124.486 68.8542 125.932 70.3006 127.716 70.3006Z" fill="white"/>
<path d="M139.91 77.3849C141.718 77.3849 143.184 75.9189 143.184 74.1105C143.184 72.3021 141.718 70.8361 139.91 70.8361C138.101 70.8361 136.635 72.3021 136.635 74.1105C136.635 75.9189 138.101 77.3849 139.91 77.3849Z" fill="white"/>
<path d="M149.487 87.7064C151.295 87.7064 152.761 86.2404 152.761 84.432C152.761 82.6236 151.295 81.1576 149.487 81.1576C147.679 81.1576 146.213 82.6236 146.213 84.432C146.213 86.2404 147.679 87.7064 149.487 87.7064Z" fill="white"/>
<path d="M155.597 100.393C157.406 100.393 158.872 98.927 158.872 97.1186C158.872 95.3102 157.406 93.8442 155.597 93.8442C153.789 93.8442 152.323 95.3102 152.323 97.1186C152.323 98.927 153.789 100.393 155.597 100.393Z" fill="white"/>
<path d="M173.442 113.573C174.84 113.573 175.973 112.44 175.973 111.041C175.973 109.643 174.84 108.509 173.442 108.509C172.043 108.509 170.91 109.643 170.91 111.041C170.91 112.44 172.043 113.573 173.442 113.573Z" fill="white"/>
<path d="M171.863 127.588C173.261 127.588 174.395 126.454 174.395 125.056C174.395 123.658 173.261 122.524 171.863 122.524C170.464 122.524 169.331 123.658 169.331 125.056C169.331 126.454 170.464 127.588 171.863 127.588Z" fill="white"/>
<path d="M167.203 140.901C168.602 140.901 169.735 139.767 169.735 138.369C169.735 136.971 168.602 135.837 167.203 135.837C165.805 135.837 164.672 136.971 164.672 138.369C164.672 139.767 165.805 140.901 167.203 140.901Z" fill="white"/>
<path d="M159.7 152.843C161.098 152.843 162.232 151.71 162.232 150.311C162.232 148.913 161.098 147.78 159.7 147.78C158.302 147.78 157.168 148.913 157.168 150.311C157.168 151.71 158.302 152.843 159.7 152.843Z" fill="white"/>
<path d="M149.728 162.815C151.126 162.815 152.26 161.682 152.26 160.283C152.26 158.885 151.126 157.752 149.728 157.752C148.33 157.752 147.196 158.885 147.196 160.283C147.196 161.682 148.33 162.815 149.728 162.815Z" fill="white"/>
<path d="M137.786 170.318C139.184 170.318 140.317 169.185 140.317 167.787C140.317 166.388 139.184 165.255 137.786 165.255C136.387 165.255 135.254 166.388 135.254 167.787C135.254 169.185 136.387 170.318 137.786 170.318Z" fill="white"/>
<path d="M124.473 174.978C125.871 174.978 127.005 173.844 127.005 172.446C127.005 171.048 125.871 169.914 124.473 169.914C123.075 169.914 121.941 171.048 121.941 172.446C121.941 173.844 123.075 174.978 124.473 174.978Z" fill="white"/>
<path d="M110.458 176.557C111.856 176.557 112.99 175.423 112.99 174.025C112.99 172.627 111.856 171.493 110.458 171.493C109.06 171.493 107.926 172.627 107.926 174.025C107.926 175.423 109.06 176.557 110.458 176.557Z" fill="white"/>
<path d="M96.4432 174.934C97.8174 174.934 98.9314 173.82 98.9314 172.446C98.9314 171.072 97.8174 169.958 96.4432 169.958C95.0691 169.958 93.9551 171.072 93.9551 172.446C93.9551 173.82 95.0691 174.934 96.4432 174.934Z" fill="white"/>
<path d="M83.1304 170.275C84.5045 170.275 85.6185 169.161 85.6185 167.787C85.6185 166.412 84.5045 165.299 83.1304 165.299C81.7562 165.299 80.6422 166.412 80.6422 167.787C80.6422 169.161 81.7562 170.275 83.1304 170.275Z" fill="white"/>
<path d="M71.1896 162.772C72.5637 162.772 73.6777 161.658 73.6777 160.283C73.6777 158.909 72.5637 157.795 71.1896 157.795C69.8154 157.795 68.7014 158.909 68.7014 160.283C68.7014 161.658 69.8154 162.772 71.1896 162.772Z" fill="white"/>
<path d="M61.2159 152.8C62.5901 152.8 63.7041 151.686 63.7041 150.311C63.7041 148.937 62.5901 147.823 61.2159 147.823C59.8418 147.823 58.7278 148.937 58.7278 150.311C58.7278 151.686 59.8418 152.8 61.2159 152.8Z" fill="white"/>
<path d="M53.7127 140.813C55.0627 140.813 56.1571 139.719 56.1571 138.369C56.1571 137.019 55.0627 135.924 53.7127 135.924C52.3626 135.924 51.2682 137.019 51.2682 138.369C51.2682 139.719 52.3626 140.813 53.7127 140.813Z" fill="white"/>
<path d="M49.0551 127.501C50.4051 127.501 51.4995 126.406 51.4995 125.056C51.4995 123.706 50.4051 122.612 49.0551 122.612C47.705 122.612 46.6106 123.706 46.6106 125.056C46.6106 126.406 47.705 127.501 49.0551 127.501Z" fill="white"/>
<path d="M47.4761 113.486C48.8261 113.486 49.9206 112.391 49.9206 111.041C49.9206 109.691 48.8261 108.597 47.4761 108.597C46.126 108.597 45.0316 109.691 45.0316 111.041C45.0316 112.391 46.126 113.486 47.4761 113.486Z" fill="white"/>
<path d="M49.0551 99.4709C50.4051 99.4709 51.4995 98.3765 51.4995 97.0264C51.4995 95.6764 50.4051 94.5819 49.0551 94.5819C47.705 94.5819 46.6106 95.6764 46.6106 97.0264C46.6106 98.3765 47.705 99.4709 49.0551 99.4709Z" fill="white"/>
<path d="M53.7127 86.1581C55.0627 86.1581 56.1571 85.0637 56.1571 83.7137C56.1571 82.3636 55.0627 81.2692 53.7127 81.2692C52.3626 81.2692 51.2682 82.3636 51.2682 83.7137C51.2682 85.0637 52.3626 86.1581 53.7127 86.1581Z" fill="white"/>
<path d="M61.2158 74.2173C62.5659 74.2173 63.6603 73.1228 63.6603 71.7728C63.6603 70.4228 62.5659 69.3283 61.2158 69.3283C59.8658 69.3283 58.7714 70.4228 58.7714 71.7728C58.7714 73.1228 59.8658 74.2173 61.2158 74.2173Z" fill="white"/>
<path d="M71.1896 64.2436C72.5396 64.2436 73.6341 63.1492 73.6341 61.7992C73.6341 60.4491 72.5396 59.3547 71.1896 59.3547C69.8395 59.3547 68.7451 60.4491 68.7451 61.7992C68.7451 63.1492 69.8395 64.2436 71.1896 64.2436Z" fill="white"/>
<path d="M83.1304 56.7403C84.4804 56.7403 85.5749 55.6459 85.5749 54.2959C85.5749 52.9458 84.4804 51.8514 83.1304 51.8514C81.7803 51.8514 80.6859 52.9458 80.6859 54.2959C80.6859 55.6459 81.7803 56.7403 83.1304 56.7403Z" fill="white"/>
<path d="M96.4431 52.0827C97.7932 52.0827 98.8876 50.9883 98.8876 49.6383C98.8876 48.2882 97.7932 47.1938 96.4431 47.1938C95.0931 47.1938 93.9987 48.2882 93.9987 49.6383C93.9987 50.9883 95.0931 52.0827 96.4431 52.0827Z" fill="white"/>
<path d="M110.458 50.5022C111.808 50.5022 112.903 49.4077 112.903 48.0577C112.903 46.7077 111.808 45.6132 110.458 45.6132C109.108 45.6132 108.014 46.7077 108.014 48.0577C108.014 49.4077 109.108 50.5022 110.458 50.5022Z" fill="white"/>
<path d="M124.473 52.0827C125.823 52.0827 126.917 50.9883 126.917 49.6383C126.917 48.2882 125.823 47.1938 124.473 47.1938C123.123 47.1938 122.028 48.2882 122.028 49.6383C122.028 50.9883 123.123 52.0827 124.473 52.0827Z" fill="white"/>
<path d="M137.786 56.7403C139.136 56.7403 140.23 55.6459 140.23 54.2959C140.23 52.9458 139.136 51.8514 137.786 51.8514C136.436 51.8514 135.341 52.9458 135.341 54.2959C135.341 55.6459 136.436 56.7403 137.786 56.7403Z" fill="white"/>
<path d="M149.728 64.2873C151.102 64.2873 152.216 63.1733 152.216 61.7992C152.216 60.425 151.102 59.311 149.728 59.311C148.354 59.311 147.24 60.425 147.24 61.7992C147.24 63.1733 148.354 64.2873 149.728 64.2873Z" fill="white"/>
<path d="M159.7 74.2609C161.074 74.2609 162.188 73.147 162.188 71.7728C162.188 70.3986 161.074 69.2846 159.7 69.2846C158.326 69.2846 157.212 70.3986 157.212 71.7728C157.212 73.147 158.326 74.2609 159.7 74.2609Z" fill="white"/>
<path d="M167.203 86.2018C168.578 86.2018 169.692 85.0878 169.692 83.7137C169.692 82.3395 168.578 81.2255 167.203 81.2255C165.829 81.2255 164.715 82.3395 164.715 83.7137C164.715 85.0878 165.829 86.2018 167.203 86.2018Z" fill="white"/>
<path d="M171.863 99.5146C173.237 99.5146 174.351 98.4006 174.351 97.0264C174.351 95.6522 173.237 94.5383 171.863 94.5383C170.488 94.5383 169.375 95.6522 169.375 97.0264C169.375 98.4006 170.488 99.5146 171.863 99.5146Z" fill="white"/>
<path d="M189.187 112.745C190.128 112.745 190.891 111.982 190.891 111.041C190.891 110.1 190.128 109.338 189.187 109.338C188.247 109.338 187.484 110.1 187.484 111.041C187.484 111.982 188.247 112.745 189.187 112.745Z" fill="white"/>
<path d="M187.922 126.803C188.863 126.803 189.626 126.041 189.626 125.1C189.626 124.159 188.863 123.396 187.922 123.396C186.982 123.396 186.219 124.159 186.219 125.1C186.219 126.041 186.982 126.803 187.922 126.803Z" fill="white"/>
<path d="M184.167 140.409C185.108 140.409 185.871 139.646 185.871 138.705C185.871 137.765 185.108 137.002 184.167 137.002C183.227 137.002 182.464 137.765 182.464 138.705C182.464 139.646 183.227 140.409 184.167 140.409Z" fill="white"/>
<path d="M178.042 153.168C179.007 153.168 179.79 152.386 179.79 151.421C179.79 150.456 179.007 149.674 178.042 149.674C177.078 149.674 176.295 150.456 176.295 151.421C176.295 152.386 177.078 153.168 178.042 153.168Z" fill="white"/>
<path d="M169.747 164.587C170.712 164.587 171.494 163.804 171.494 162.839C171.494 161.875 170.712 161.092 169.747 161.092C168.782 161.092 168 161.875 168 162.839C168 163.804 168.782 164.587 169.747 164.587Z" fill="white"/>
<path d="M159.545 174.34C160.51 174.34 161.292 173.558 161.292 172.593C161.292 171.628 160.51 170.846 159.545 170.846C158.58 170.846 157.798 171.628 157.798 172.593C157.798 173.558 158.58 174.34 159.545 174.34Z" fill="white"/>
<path d="M147.766 182.117C148.731 182.117 149.513 181.335 149.513 180.37C149.513 179.405 148.731 178.623 147.766 178.623C146.801 178.623 146.019 179.405 146.019 180.37C146.019 181.335 146.801 182.117 147.766 182.117Z" fill="white"/>
<path d="M134.786 187.621C135.727 187.621 136.49 186.858 136.49 185.917C136.49 184.976 135.727 184.214 134.786 184.214C133.845 184.214 133.083 184.976 133.083 185.917C133.083 186.858 133.845 187.621 134.786 187.621Z" fill="white"/>
<path d="M121.026 190.761C121.966 190.761 122.729 189.998 122.729 189.057C122.729 188.116 121.966 187.354 121.026 187.354C120.085 187.354 119.322 188.116 119.322 189.057C119.322 189.998 120.085 190.761 121.026 190.761Z" fill="white"/>
<path d="M106.926 191.395C107.867 191.395 108.63 190.632 108.63 189.691C108.63 188.751 107.867 187.988 106.926 187.988C105.985 187.988 105.223 188.751 105.223 189.691C105.223 190.632 105.985 191.395 106.926 191.395Z" fill="white"/>
<path d="M92.939 189.499C93.8798 189.499 94.6425 188.736 94.6425 187.795C94.6425 186.855 93.8798 186.092 92.939 186.092C91.9982 186.092 91.2355 186.855 91.2355 187.795C91.2355 188.736 91.9982 189.499 92.939 189.499Z" fill="white"/>
<path d="M79.5163 185.137C80.4571 185.137 81.2198 184.375 81.2198 183.434C81.2198 182.493 80.4571 181.73 79.5163 181.73C78.5754 181.73 77.8127 182.493 77.8127 183.434C77.8127 184.375 78.5754 185.137 79.5163 185.137Z" fill="white"/>
<path d="M67.0868 178.449C68.0277 178.449 68.7904 177.687 68.7904 176.746C68.7904 175.805 68.0277 175.042 67.0868 175.042C66.146 175.042 65.3833 175.805 65.3833 176.746C65.3833 177.687 66.146 178.449 67.0868 178.449Z" fill="white"/>
<path d="M56.0521 169.607C56.9688 169.607 57.7119 168.864 57.7119 167.947C57.7119 167.03 56.9688 166.287 56.0521 166.287C55.1354 166.287 54.3922 167.03 54.3922 167.947C54.3922 168.864 55.1354 169.607 56.0521 169.607Z" fill="white"/>
<path d="M46.7659 158.976C47.6826 158.976 48.4258 158.233 48.4258 157.316C48.4258 156.4 47.6826 155.657 46.7659 155.657C45.8492 155.657 45.1061 156.4 45.1061 157.316C45.1061 158.233 45.8492 158.976 46.7659 158.976Z" fill="white"/>
<path d="M39.5262 146.861C40.4429 146.861 41.186 146.117 41.186 145.201C41.186 144.284 40.4429 143.541 39.5262 143.541C38.6095 143.541 37.8663 144.284 37.8663 145.201C37.8663 146.117 38.6095 146.861 39.5262 146.861Z" fill="white"/>
<path d="M34.5678 133.647C35.4845 133.647 36.2277 132.903 36.2277 131.987C36.2277 131.07 35.4845 130.327 34.5678 130.327C33.6511 130.327 32.908 131.07 32.908 131.987C32.908 132.903 33.6511 133.647 34.5678 133.647Z" fill="white"/>
<path d="M32.0473 119.758C32.964 119.758 33.7071 119.015 33.7071 118.098C33.7071 117.181 32.964 116.438 32.0473 116.438C31.1306 116.438 30.3875 117.181 30.3875 118.098C30.3875 119.015 31.1306 119.758 32.0473 119.758Z" fill="white"/>
<path d="M32.0473 105.644C32.964 105.644 33.7071 104.901 33.7071 103.984C33.7071 103.068 32.964 102.325 32.0473 102.325C31.1306 102.325 30.3875 103.068 30.3875 103.984C30.3875 104.901 31.1306 105.644 32.0473 105.644Z" fill="white"/>
<path d="M34.5678 91.7573C35.4845 91.7573 36.2277 91.0141 36.2277 90.0974C36.2277 89.1807 35.4845 88.4376 34.5678 88.4376C33.6511 88.4376 32.908 89.1807 32.908 90.0974C32.908 91.0141 33.6511 91.7573 34.5678 91.7573Z" fill="white"/>
<path d="M39.5263 78.4979C40.4189 78.4979 41.1425 77.7743 41.1425 76.8818C41.1425 75.9892 40.4189 75.2656 39.5263 75.2656C38.6337 75.2656 37.9102 75.9892 37.9102 76.8818C37.9102 77.7743 38.6337 78.4979 39.5263 78.4979Z" fill="white"/>
<path d="M46.7659 66.426C47.6826 66.426 48.4258 65.6829 48.4258 64.7662C48.4258 63.8495 47.6826 63.1063 46.7659 63.1063C45.8492 63.1063 45.1061 63.8495 45.1061 64.7662C45.1061 65.6829 45.8492 66.426 46.7659 66.426Z" fill="white"/>
<path d="M56.052 55.7535C56.9445 55.7535 57.6681 55.0299 57.6681 54.1373C57.6681 53.2447 56.9445 52.5212 56.052 52.5212C55.1594 52.5212 54.4358 53.2447 54.4358 54.1373C54.4358 55.0299 55.1594 55.7535 56.052 55.7535Z" fill="white"/>
<path d="M67.0867 46.9528C67.9793 46.9528 68.7029 46.2292 68.7029 45.3366C68.7029 44.444 67.9793 43.7204 67.0867 43.7204C66.1942 43.7204 65.4706 44.444 65.4706 45.3366C65.4706 46.2292 66.1942 46.9528 67.0867 46.9528Z" fill="white"/>
<path d="M79.5163 40.2648C80.4089 40.2648 81.1325 39.5412 81.1325 38.6487C81.1325 37.7561 80.4089 37.0325 79.5163 37.0325C78.6237 37.0325 77.9001 37.7561 77.9001 38.6487C77.9001 39.5412 78.6237 40.2648 79.5163 40.2648Z" fill="white"/>
<path d="M92.9389 35.947C93.8556 35.947 94.5987 35.2038 94.5987 34.2871C94.5987 33.3704 93.8556 32.6273 92.9389 32.6273C92.0222 32.6273 91.2791 33.3704 91.2791 34.2871C91.2791 35.2038 92.0222 35.947 92.9389 35.947Z" fill="white"/>
<path d="M106.927 34.0525C107.843 34.0525 108.586 33.3094 108.586 32.3927C108.586 31.476 107.843 30.7328 106.927 30.7328C106.01 30.7328 105.267 31.476 105.267 32.3927C105.267 33.3094 106.01 34.0525 106.927 34.0525Z" fill="white"/>
<path d="M121.025 34.6851C121.942 34.6851 122.685 33.942 122.685 33.0252C122.685 32.1085 121.942 31.3654 121.025 31.3654C120.109 31.3654 119.366 32.1085 119.366 33.0252C119.366 33.942 120.109 34.6851 121.025 34.6851Z" fill="white"/>
<path d="M134.786 37.8268C135.703 37.8268 136.446 37.0837 136.446 36.167C136.446 35.2503 135.703 34.5071 134.786 34.5071C133.87 34.5071 133.126 35.2503 133.126 36.167C133.126 37.0837 133.87 37.8268 134.786 37.8268Z" fill="white"/>
<path d="M147.766 43.3742C148.682 43.3742 149.426 42.6311 149.426 41.7144C149.426 40.7977 148.682 40.0545 147.766 40.0545C146.849 40.0545 146.106 40.7977 146.106 41.7144C146.106 42.6311 146.849 43.3742 147.766 43.3742Z" fill="white"/>
<path d="M159.545 51.1493C160.461 51.1493 161.205 50.4061 161.205 49.4894C161.205 48.5727 160.461 47.8296 159.545 47.8296C158.628 47.8296 157.885 48.5727 157.885 49.4894C157.885 50.4061 158.628 51.1493 159.545 51.1493Z" fill="white"/>
<path d="M169.747 60.9029C170.663 60.9029 171.406 60.1598 171.406 59.2431C171.406 58.3264 170.663 57.5832 169.747 57.5832C168.83 57.5832 168.087 58.3264 168.087 59.2431C168.087 60.1598 168.83 60.9029 169.747 60.9029Z" fill="white"/>
<path d="M178.043 72.3649C178.983 72.3649 179.746 71.6022 179.746 70.6614C179.746 69.7205 178.983 68.9578 178.043 68.9578C177.102 68.9578 176.339 69.7205 176.339 70.6614C176.339 71.6022 177.102 72.3649 178.043 72.3649Z" fill="white"/>
<path d="M184.167 85.0823C185.108 85.0823 185.871 84.3196 185.871 83.3788C185.871 82.4379 185.108 81.6752 184.167 81.6752C183.227 81.6752 182.464 82.4379 182.464 83.3788C182.464 84.3196 183.227 85.0823 184.167 85.0823Z" fill="white"/>
<path d="M187.922 98.6879C188.863 98.6879 189.626 97.9252 189.626 96.9843C189.626 96.0435 188.863 95.2808 187.922 95.2808C186.982 95.2808 186.219 96.0435 186.219 96.9843C186.219 97.9252 186.982 98.6879 187.922 98.6879Z" fill="white"/>
<path d="M204.932 111.959C205.438 111.959 205.849 111.548 205.849 111.041C205.849 110.535 205.438 110.124 204.932 110.124C204.425 110.124 204.015 110.535 204.015 111.041C204.015 111.548 204.425 111.959 204.932 111.959Z" fill="white"/>
<path d="M203.877 126.04C204.384 126.04 204.794 125.629 204.794 125.122C204.794 124.616 204.384 124.205 203.877 124.205C203.37 124.205 202.96 124.616 202.96 125.122C202.96 125.629 203.37 126.04 203.877 126.04Z" fill="white"/>
<path d="M200.735 139.805C201.242 139.805 201.653 139.395 201.653 138.888C201.653 138.382 201.242 137.971 200.735 137.971C200.229 137.971 199.818 138.382 199.818 138.888C199.818 139.395 200.229 139.805 200.735 139.805Z" fill="white"/>
<path d="M195.578 152.95C196.084 152.95 196.495 152.539 196.495 152.033C196.495 151.526 196.084 151.115 195.578 151.115C195.071 151.115 194.661 151.526 194.661 152.033C194.661 152.539 195.071 152.95 195.578 152.95Z" fill="white"/>
<path d="M188.516 165.179C189.023 165.179 189.433 164.768 189.433 164.262C189.433 163.755 189.023 163.344 188.516 163.344C188.01 163.344 187.599 163.755 187.599 164.262C187.599 164.768 188.01 165.179 188.516 165.179Z" fill="white"/>
<path d="M179.714 176.217C180.22 176.217 180.631 175.806 180.631 175.3C180.631 174.793 180.22 174.382 179.714 174.382C179.207 174.382 178.797 174.793 178.797 175.3C178.797 175.806 179.207 176.217 179.714 176.217Z" fill="white"/>
<path d="M169.362 185.822C169.868 185.822 170.279 185.411 170.279 184.904C170.279 184.398 169.868 183.987 169.362 183.987C168.855 183.987 168.444 184.398 168.444 184.904C168.444 185.411 168.855 185.822 169.362 185.822Z" fill="white"/>
<path d="M157.696 193.776C158.202 193.776 158.613 193.366 158.613 192.859C158.613 192.352 158.202 191.942 157.696 191.942C157.189 191.942 156.778 192.352 156.778 192.859C156.778 193.366 157.189 193.776 157.696 193.776Z" fill="white"/>
<path d="M144.973 199.903C145.48 199.903 145.891 199.492 145.891 198.986C145.891 198.479 145.48 198.068 144.973 198.068C144.467 198.068 144.056 198.479 144.056 198.986C144.056 199.492 144.467 199.903 144.973 199.903Z" fill="white"/>
<path d="M131.481 204.064C131.988 204.064 132.399 203.653 132.399 203.147C132.399 202.64 131.988 202.229 131.481 202.229C130.975 202.229 130.564 202.64 130.564 203.147C130.564 203.653 130.975 204.064 131.481 204.064Z" fill="white"/>
<path d="M117.518 206.169C118.025 206.169 118.435 205.758 118.435 205.251C118.435 204.745 118.025 204.334 117.518 204.334C117.012 204.334 116.601 204.745 116.601 205.251C116.601 205.758 117.012 206.169 117.518 206.169Z" fill="white"/>
<path d="M103.398 206.169C103.905 206.169 104.315 205.758 104.315 205.251C104.315 204.745 103.905 204.334 103.398 204.334C102.891 204.334 102.481 204.745 102.481 205.251C102.481 205.758 102.891 206.169 103.398 206.169Z" fill="white"/>
<path d="M89.4366 204.064C89.9432 204.064 90.3539 203.653 90.3539 203.147C90.3539 202.64 89.9432 202.229 89.4366 202.229C88.93 202.229 88.5193 202.64 88.5193 203.147C88.5193 203.653 88.93 204.064 89.4366 204.064Z" fill="white"/>
<path d="M75.9426 199.903C76.4492 199.903 76.8598 199.492 76.8598 198.986C76.8598 198.479 76.4492 198.068 75.9426 198.068C75.436 198.068 75.0253 198.479 75.0253 198.986C75.0253 199.492 75.436 199.903 75.9426 199.903Z" fill="white"/>
<path d="M63.222 193.776C63.7286 193.776 64.1393 193.366 64.1393 192.859C64.1393 192.352 63.7286 191.942 63.222 191.942C62.7154 191.942 62.3047 192.352 62.3047 192.859C62.3047 193.366 62.7154 193.776 63.222 193.776Z" fill="white"/>
<path d="M51.5545 185.778C52.037 185.778 52.4281 185.387 52.4281 184.904C52.4281 184.422 52.037 184.031 51.5545 184.031C51.072 184.031 50.6809 184.422 50.6809 184.904C50.6809 185.387 51.072 185.778 51.5545 185.778Z" fill="white"/>
<path d="M41.2039 176.173C41.6864 176.173 42.0775 175.782 42.0775 175.3C42.0775 174.817 41.6864 174.426 41.2039 174.426C40.7214 174.426 40.3303 174.817 40.3303 175.3C40.3303 175.782 40.7214 176.173 41.2039 176.173Z" fill="white"/>
<path d="M32.4 165.135C32.8824 165.135 33.2736 164.744 33.2736 164.262C33.2736 163.779 32.8824 163.388 32.4 163.388C31.9175 163.388 31.5264 163.779 31.5264 164.262C31.5264 164.744 31.9175 165.135 32.4 165.135Z" fill="white"/>
<path d="M25.3399 152.906C25.8224 152.906 26.2135 152.515 26.2135 152.033C26.2135 151.55 25.8224 151.159 25.3399 151.159C24.8574 151.159 24.4663 151.55 24.4663 152.033C24.4663 152.515 24.8574 152.906 25.3399 152.906Z" fill="white"/>
<path d="M20.1809 139.762C20.6633 139.762 21.0545 139.371 21.0545 138.888C21.0545 138.406 20.6633 138.015 20.1809 138.015C19.6984 138.015 19.3073 138.406 19.3073 138.888C19.3073 139.371 19.6984 139.762 20.1809 139.762Z" fill="white"/>
<path d="M17.039 125.952C17.4974 125.952 17.869 125.581 17.869 125.122C17.869 124.664 17.4974 124.293 17.039 124.293C16.5807 124.293 16.2091 124.664 16.2091 125.122C16.2091 125.581 16.5807 125.952 17.039 125.952Z" fill="white"/>
<path d="M15.9843 111.871C16.4427 111.871 16.8143 111.5 16.8143 111.041C16.8143 110.583 16.4427 110.211 15.9843 110.211C15.526 110.211 15.1544 110.583 15.1544 111.041C15.1544 111.5 15.526 111.871 15.9843 111.871Z" fill="white"/>
<path d="M17.039 97.7916C17.4974 97.7916 17.869 97.42 17.869 96.9617C17.869 96.5033 17.4974 96.1318 17.039 96.1318C16.5807 96.1318 16.2091 96.5033 16.2091 96.9617C16.2091 97.42 16.5807 97.7916 17.039 97.7916Z" fill="white"/>
<path d="M20.1809 84.0243C20.6392 84.0243 21.0108 83.6527 21.0108 83.1944C21.0108 82.736 20.6392 82.3644 20.1809 82.3644C19.7225 82.3644 19.351 82.736 19.351 83.1944C19.351 83.6527 19.7225 84.0243 20.1809 84.0243Z" fill="white"/>
<path d="M25.3399 70.8798C25.7983 70.8798 26.1699 70.5082 26.1699 70.0499C26.1699 69.5915 25.7983 69.2199 25.3399 69.2199C24.8816 69.2199 24.51 69.5915 24.51 70.0499C24.51 70.5082 24.8816 70.8798 25.3399 70.8798Z" fill="white"/>
<path d="M32.4 58.6526C32.8583 58.6526 33.2299 58.281 33.2299 57.8226C33.2299 57.3643 32.8583 56.9927 32.4 56.9927C31.9416 56.9927 31.5701 57.3643 31.5701 57.8226C31.5701 58.281 31.9416 58.6526 32.4 58.6526Z" fill="white"/>
<path d="M41.2039 47.6128C41.6623 47.6128 42.0339 47.2412 42.0339 46.7829C42.0339 46.3245 41.6623 45.953 41.2039 45.953C40.7456 45.953 40.374 46.3245 40.374 46.7829C40.374 47.2412 40.7456 47.6128 41.2039 47.6128Z" fill="white"/>
<path d="M51.5544 38.008C52.0128 38.008 52.3843 37.6365 52.3843 37.1781C52.3843 36.7197 52.0128 36.3482 51.5544 36.3482C51.0961 36.3482 50.7245 36.7197 50.7245 37.1781C50.7245 37.6365 51.0961 38.008 51.5544 38.008Z" fill="white"/>
<path d="M63.222 30.055C63.6804 30.055 64.0519 29.6834 64.0519 29.2251C64.0519 28.7667 63.6804 28.3951 63.222 28.3951C62.7637 28.3951 62.3921 28.7667 62.3921 29.2251C62.3921 29.6834 62.7637 30.055 63.222 30.055Z" fill="white"/>
<path d="M75.9427 23.9284C76.4011 23.9284 76.7726 23.5569 76.7726 23.0985C76.7726 22.6402 76.4011 22.2686 75.9427 22.2686C75.4844 22.2686 75.1128 22.6402 75.1128 23.0985C75.1128 23.5569 75.4844 23.9284 75.9427 23.9284Z" fill="white"/>
<path d="M89.4365 19.7659C89.8948 19.7659 90.2664 19.3943 90.2664 18.936C90.2664 18.4776 89.8948 18.106 89.4365 18.106C88.9781 18.106 88.6066 18.4776 88.6066 18.936C88.6066 19.3943 88.9781 19.7659 89.4365 19.7659Z" fill="white"/>
<path d="M103.398 17.6612C103.856 17.6612 104.228 17.2896 104.228 16.8312C104.228 16.3729 103.856 16.0013 103.398 16.0013C102.94 16.0013 102.568 16.3729 102.568 16.8312C102.568 17.2896 102.94 17.6612 103.398 17.6612Z" fill="white"/>
<path d="M117.518 17.6612C117.976 17.6612 118.348 17.2896 118.348 16.8312C118.348 16.3729 117.976 16.0013 117.518 16.0013C117.06 16.0013 116.688 16.3729 116.688 16.8312C116.688 17.2896 117.06 17.6612 117.518 17.6612Z" fill="white"/>
<path d="M131.481 19.7659C131.939 19.7659 132.311 19.3943 132.311 18.936C132.311 18.4776 131.939 18.106 131.481 18.106C131.023 18.106 130.651 18.4776 130.651 18.936C130.651 19.3943 131.023 19.7659 131.481 19.7659Z" fill="white"/>
<path d="M144.973 23.9721C145.456 23.9721 145.847 23.581 145.847 23.0985C145.847 22.616 145.456 22.2249 144.973 22.2249C144.491 22.2249 144.1 22.616 144.1 23.0985C144.1 23.581 144.491 23.9721 144.973 23.9721Z" fill="white"/>
<path d="M157.696 30.0987C158.178 30.0987 158.569 29.7076 158.569 29.2251C158.569 28.7426 158.178 28.3515 157.696 28.3515C157.213 28.3515 156.822 28.7426 156.822 29.2251C156.822 29.7076 157.213 30.0987 157.696 30.0987Z" fill="white"/>
<path d="M169.362 38.0517C169.844 38.0517 170.235 37.6606 170.235 37.1781C170.235 36.6956 169.844 36.3045 169.362 36.3045C168.879 36.3045 168.488 36.6956 168.488 37.1781C168.488 37.6606 168.879 38.0517 169.362 38.0517Z" fill="white"/>
<path d="M179.714 47.6565C180.196 47.6565 180.587 47.2654 180.587 46.7829C180.587 46.3004 180.196 45.9093 179.714 45.9093C179.231 45.9093 178.84 46.3004 178.84 46.7829C178.84 47.2654 179.231 47.6565 179.714 47.6565Z" fill="white"/>
<path d="M188.516 58.6962C188.999 58.6962 189.39 58.3051 189.39 57.8226C189.39 57.3402 188.999 56.949 188.516 56.949C188.034 56.949 187.643 57.3402 187.643 57.8226C187.643 58.3051 188.034 58.6962 188.516 58.6962Z" fill="white"/>
<path d="M195.578 70.9671C196.084 70.9671 196.495 70.5565 196.495 70.0499C196.495 69.5433 196.084 69.1326 195.578 69.1326C195.071 69.1326 194.661 69.5433 194.661 70.0499C194.661 70.5565 195.071 70.9671 195.578 70.9671Z" fill="white"/>
<path d="M200.735 84.1116C201.242 84.1116 201.653 83.701 201.653 83.1944C201.653 82.6878 201.242 82.2771 200.735 82.2771C200.229 82.2771 199.818 82.6878 199.818 83.1944C199.818 83.701 200.229 84.1116 200.735 84.1116Z" fill="white"/>
<path d="M203.877 97.879C204.384 97.879 204.794 97.4683 204.794 96.9617C204.794 96.4551 204.384 96.0444 203.877 96.0444C203.37 96.0444 202.96 96.4551 202.96 96.9617C202.96 97.4683 203.37 97.879 203.877 97.879Z" fill="white"/>
<path d="M220.678 111.216C220.774 111.216 220.852 111.138 220.852 111.041C220.852 110.945 220.774 110.867 220.678 110.867C220.581 110.867 220.503 110.945 220.503 111.041C220.503 111.138 220.581 111.216 220.678 111.216Z" fill="white"/>
<path d="M219.773 125.312C219.87 125.312 219.948 125.234 219.948 125.137C219.948 125.041 219.87 124.962 219.773 124.962C219.677 124.962 219.599 125.041 219.599 125.137C219.599 125.234 219.677 125.312 219.773 125.312Z" fill="white"/>
<path d="M217.073 139.175C217.17 139.175 217.248 139.096 217.248 139C217.248 138.903 217.17 138.825 217.073 138.825C216.977 138.825 216.899 138.903 216.899 139C216.899 139.096 216.977 139.175 217.073 139.175Z" fill="white"/>
<path d="M212.623 152.578C212.719 152.578 212.797 152.5 212.797 152.403C212.797 152.307 212.719 152.228 212.623 152.228C212.526 152.228 212.448 152.307 212.448 152.403C212.448 152.5 212.526 152.578 212.623 152.578Z" fill="white"/>
<path d="M206.495 165.303C206.591 165.303 206.669 165.225 206.669 165.129C206.669 165.032 206.591 164.954 206.495 164.954C206.398 164.954 206.32 165.032 206.32 165.129C206.32 165.225 206.398 165.303 206.495 165.303Z" fill="white"/>
<path d="M198.791 177.141C198.887 177.141 198.965 177.062 198.965 176.966C198.965 176.869 198.887 176.791 198.791 176.791C198.694 176.791 198.616 176.869 198.616 176.966C198.616 177.062 198.694 177.141 198.791 177.141Z" fill="white"/>
<path d="M189.634 187.894C189.731 187.894 189.809 187.816 189.809 187.719C189.809 187.623 189.731 187.545 189.634 187.545C189.538 187.545 189.459 187.623 189.459 187.719C189.459 187.816 189.538 187.894 189.634 187.894Z" fill="white"/>
<path d="M179.18 197.389C179.276 197.389 179.355 197.311 179.355 197.214C179.355 197.118 179.276 197.039 179.18 197.039C179.083 197.039 179.005 197.118 179.005 197.214C179.005 197.311 179.083 197.389 179.18 197.389Z" fill="white"/>
<path d="M167.595 205.47C167.691 205.47 167.77 205.391 167.77 205.295C167.77 205.198 167.691 205.12 167.595 205.12C167.498 205.12 167.42 205.198 167.42 205.295C167.42 205.391 167.498 205.47 167.595 205.47Z" fill="white"/>
<path d="M155.073 212.002C155.17 212.002 155.248 211.924 155.248 211.828C155.248 211.731 155.17 211.653 155.073 211.653C154.977 211.653 154.899 211.731 154.899 211.828C154.899 211.924 154.977 212.002 155.073 212.002Z" fill="white"/>
<path d="M141.819 216.88C141.915 216.88 141.993 216.802 141.993 216.705C141.993 216.609 141.915 216.531 141.819 216.531C141.722 216.531 141.644 216.609 141.644 216.705C141.644 216.802 141.722 216.88 141.819 216.88Z" fill="white"/>
<path d="M128.05 220.023C128.146 220.023 128.225 219.945 128.225 219.849C128.225 219.752 128.146 219.674 128.05 219.674C127.953 219.674 127.875 219.752 127.875 219.849C127.875 219.945 127.953 220.023 128.05 220.023Z" fill="white"/>
<path d="M113.991 221.379C114.088 221.379 114.166 221.301 114.166 221.204C114.166 221.108 114.088 221.03 113.991 221.03C113.895 221.03 113.817 221.108 113.817 221.204C113.817 221.301 113.895 221.379 113.991 221.379Z" fill="white"/>
<path d="M99.8745 220.928C99.971 220.928 100.049 220.849 100.049 220.753C100.049 220.656 99.971 220.578 99.8745 220.578C99.7781 220.578 99.6998 220.656 99.6998 220.753C99.6998 220.849 99.7781 220.928 99.8745 220.928Z" fill="white"/>
<path d="M85.9324 218.672C86.0289 218.672 86.1071 218.594 86.1071 218.498C86.1071 218.401 86.0289 218.323 85.9324 218.323C85.8359 218.323 85.7577 218.401 85.7577 218.498C85.7577 218.594 85.8359 218.672 85.9324 218.672Z" fill="white"/>
<path d="M72.3915 214.654C72.488 214.654 72.5662 214.576 72.5662 214.479C72.5662 214.383 72.488 214.304 72.3915 214.304C72.295 214.304 72.2168 214.383 72.2168 214.479C72.2168 214.576 72.295 214.654 72.3915 214.654Z" fill="white"/>
<path d="M59.4767 208.937C59.5732 208.937 59.6514 208.858 59.6514 208.762C59.6514 208.665 59.5732 208.587 59.4767 208.587C59.3802 208.587 59.302 208.665 59.302 208.762C59.302 208.858 59.3802 208.937 59.4767 208.937Z" fill="white"/>
<path d="M47.4 201.572C47.4723 201.572 47.531 201.514 47.531 201.441C47.531 201.369 47.4723 201.31 47.4 201.31C47.3276 201.31 47.2689 201.369 47.2689 201.441C47.2689 201.514 47.3276 201.572 47.4 201.572Z" fill="white"/>
<path d="M36.3571 192.765C36.4295 192.765 36.4882 192.707 36.4882 192.634C36.4882 192.562 36.4295 192.503 36.3571 192.503C36.2847 192.503 36.2261 192.562 36.2261 192.634C36.2261 192.707 36.2847 192.765 36.3571 192.765Z" fill="white"/>
<path d="M26.5323 182.62C26.6047 182.62 26.6633 182.561 26.6633 182.489C26.6633 182.417 26.6047 182.358 26.5323 182.358C26.4599 182.358 26.4012 182.417 26.4012 182.489C26.4012 182.561 26.4599 182.62 26.5323 182.62Z" fill="white"/>
<path d="M18.0842 171.302C18.1565 171.302 18.2152 171.243 18.2152 171.171C18.2152 171.099 18.1565 171.04 18.0842 171.04C18.0118 171.04 17.9531 171.099 17.9531 171.171C17.9531 171.243 18.0118 171.302 18.0842 171.302Z" fill="white"/>
<path d="M11.1537 158.996C11.2261 158.996 11.2848 158.937 11.2848 158.865C11.2848 158.792 11.2261 158.734 11.1537 158.734C11.0814 158.734 11.0227 158.792 11.0227 158.865C11.0227 158.937 11.0814 158.996 11.1537 158.996Z" fill="white"/>
<path d="M5.85382 145.905C5.92619 145.905 5.98486 145.846 5.98486 145.773C5.98486 145.701 5.92619 145.642 5.85382 145.642C5.78145 145.642 5.72278 145.701 5.72278 145.773C5.72278 145.846 5.78145 145.905 5.85382 145.905Z" fill="white"/>
<path d="M2.27032 132.242C2.34269 132.242 2.40136 132.184 2.40136 132.111C2.40136 132.039 2.34269 131.98 2.27032 131.98C2.19795 131.98 2.13928 132.039 2.13928 132.111C2.13928 132.184 2.19795 132.242 2.27032 132.242Z" fill="white"/>
<path d="M0.464903 118.234C0.537274 118.234 0.595943 118.175 0.595943 118.103C0.595943 118.031 0.537274 117.972 0.464903 117.972C0.392531 117.972 0.333862 118.031 0.333862 118.103C0.333862 118.175 0.392531 118.234 0.464903 118.234Z" fill="white"/>
<path d="M0.464903 104.111C0.537274 104.111 0.595943 104.052 0.595943 103.98C0.595943 103.907 0.537274 103.849 0.464903 103.849C0.392531 103.849 0.333862 103.907 0.333862 103.98C0.333862 104.052 0.392531 104.111 0.464903 104.111Z" fill="white"/>
<path d="M2.27032 90.1023C2.34269 90.1023 2.40136 90.0436 2.40136 89.9713C2.40136 89.8989 2.34269 89.8402 2.27032 89.8402C2.19795 89.8402 2.13928 89.8989 2.13928 89.9713C2.13928 90.0436 2.19795 90.1023 2.27032 90.1023Z" fill="white"/>
<path d="M5.85382 76.4417C5.92619 76.4417 5.98486 76.3831 5.98486 76.3107C5.98486 76.2383 5.92619 76.1796 5.85382 76.1796C5.78145 76.1796 5.72278 76.2383 5.72278 76.3107C5.72278 76.3831 5.78145 76.4417 5.85382 76.4417Z" fill="white"/>
<path d="M11.1537 63.3506C11.2261 63.3506 11.2848 63.2919 11.2848 63.2196C11.2848 63.1472 11.2261 63.0885 11.1537 63.0885C11.0814 63.0885 11.0227 63.1472 11.0227 63.2196C11.0227 63.2919 11.0814 63.3506 11.1537 63.3506Z" fill="white"/>
<path d="M18.0842 51.0441C18.1565 51.0441 18.2152 50.9855 18.2152 50.9131C18.2152 50.8407 18.1565 50.782 18.0842 50.782C18.0118 50.782 17.9531 50.8407 17.9531 50.9131C17.9531 50.9855 18.0118 51.0441 18.0842 51.0441Z" fill="white"/>
<path d="M26.5323 39.6808C26.5806 39.6808 26.6197 39.6417 26.6197 39.5935C26.6197 39.5452 26.5806 39.5061 26.5323 39.5061C26.4841 39.5061 26.4449 39.5452 26.4449 39.5935C26.4449 39.6417 26.4841 39.6808 26.5323 39.6808Z" fill="white"/>
<path d="M36.3571 29.5357C36.4054 29.5357 36.4445 29.4966 36.4445 29.4483C36.4445 29.4001 36.4054 29.361 36.3571 29.361C36.3089 29.361 36.2698 29.4001 36.2698 29.4483C36.2698 29.4966 36.3089 29.5357 36.3571 29.5357Z" fill="white"/>
<path d="M47.4 20.7738C47.4723 20.7738 47.531 20.7151 47.531 20.6427C47.531 20.5704 47.4723 20.5117 47.4 20.5117C47.3276 20.5117 47.2689 20.5704 47.2689 20.6427C47.2689 20.7151 47.3276 20.7738 47.4 20.7738Z" fill="white"/>
<path d="M59.4769 13.4517C59.5492 13.4517 59.6079 13.393 59.6079 13.3206C59.6079 13.2483 59.5492 13.1896 59.4769 13.1896C59.4045 13.1896 59.3458 13.2483 59.3458 13.3206C59.3458 13.393 59.4045 13.4517 59.4769 13.4517Z" fill="white"/>
<path d="M72.3915 7.73443C72.4639 7.73443 72.5226 7.67576 72.5226 7.60339C72.5226 7.53102 72.4639 7.47235 72.3915 7.47235C72.3192 7.47235 72.2605 7.53102 72.2605 7.60339C72.2605 7.67576 72.3192 7.73443 72.3915 7.73443Z" fill="white"/>
<path d="M85.9323 3.71585C86.0047 3.71585 86.0633 3.65719 86.0633 3.58481C86.0633 3.51244 86.0047 3.45377 85.9323 3.45377C85.8599 3.45377 85.8013 3.51244 85.8013 3.58481C85.8013 3.65719 85.8599 3.71585 85.9323 3.71585Z" fill="white"/>
<path d="M99.8744 1.46228C99.9468 1.46228 100.005 1.40362 100.005 1.33124C100.005 1.25887 99.9468 1.2002 99.8744 1.2002C99.8021 1.2002 99.7434 1.25887 99.7434 1.33124C99.7434 1.40362 99.8021 1.46228 99.8744 1.46228Z" fill="white"/>
<path d="M113.991 1.0093C114.064 1.0093 114.122 0.950635 114.122 0.878263C114.122 0.805892 114.064 0.747223 113.991 0.747223C113.919 0.747223 113.86 0.805892 113.86 0.878263C113.86 0.950635 113.919 1.0093 113.991 1.0093Z" fill="white"/>
<path d="M128.05 2.365C128.122 2.365 128.181 2.30633 128.181 2.23396C128.181 2.16159 128.122 2.10292 128.05 2.10292C127.977 2.10292 127.919 2.16159 127.919 2.23396C127.919 2.30633 127.977 2.365 128.05 2.365Z" fill="white"/>
<path d="M141.819 5.50836C141.891 5.50836 141.95 5.44969 141.95 5.37732C141.95 5.30495 141.891 5.24628 141.819 5.24628C141.746 5.24628 141.688 5.30495 141.688 5.37732C141.688 5.44969 141.746 5.50836 141.819 5.50836Z" fill="white"/>
<path d="M155.073 10.386C155.146 10.386 155.204 10.3273 155.204 10.2549C155.204 10.1826 155.146 10.1239 155.073 10.1239C155.001 10.1239 154.942 10.1826 154.942 10.2549C154.942 10.3273 155.001 10.386 155.073 10.386Z" fill="white"/>
<path d="M167.595 16.9186C167.667 16.9186 167.726 16.8599 167.726 16.7876C167.726 16.7152 167.667 16.6565 167.595 16.6565C167.523 16.6565 167.464 16.7152 167.464 16.7876C167.464 16.8599 167.523 16.9186 167.595 16.9186Z" fill="white"/>
<path d="M179.18 24.9994C179.252 24.9994 179.311 24.9408 179.311 24.8684C179.311 24.796 179.252 24.7373 179.18 24.7373C179.107 24.7373 179.049 24.796 179.049 24.8684C179.049 24.9408 179.107 24.9994 179.18 24.9994Z" fill="white"/>
<path d="M189.634 34.4942C189.706 34.4942 189.765 34.4355 189.765 34.3632C189.765 34.2908 189.706 34.2321 189.634 34.2321C189.562 34.2321 189.503 34.2908 189.503 34.3632C189.503 34.4355 189.562 34.4942 189.634 34.4942Z" fill="white"/>
<path d="M198.791 45.2492C198.863 45.2492 198.922 45.1906 198.922 45.1182C198.922 45.0458 198.863 44.9871 198.791 44.9871C198.718 44.9871 198.66 45.0458 198.66 45.1182C198.66 45.1906 198.718 45.2492 198.791 45.2492Z" fill="white"/>
<path d="M206.495 57.0866C206.567 57.0866 206.626 57.0279 206.626 56.9555C206.626 56.8831 206.567 56.8245 206.495 56.8245C206.422 56.8245 206.364 56.8831 206.364 56.9555C206.364 57.0279 206.422 57.0866 206.495 57.0866Z" fill="white"/>
<path d="M212.623 69.8104C212.695 69.8104 212.754 69.7518 212.754 69.6794C212.754 69.607 212.695 69.5483 212.623 69.5483C212.55 69.5483 212.492 69.607 212.492 69.6794C212.492 69.7518 212.55 69.8104 212.623 69.8104Z" fill="white"/>
<path d="M217.073 83.2591C217.17 83.2591 217.248 83.1808 217.248 83.0843C217.248 82.9879 217.17 82.9096 217.073 82.9096C216.977 82.9096 216.899 82.9879 216.899 83.0843C216.899 83.1808 216.977 83.2591 217.073 83.2591Z" fill="white"/>
<path d="M219.773 97.1219C219.87 97.1219 219.948 97.0436 219.948 96.9471C219.948 96.8506 219.87 96.7724 219.773 96.7724C219.677 96.7724 219.599 96.8506 219.599 96.9471C219.599 97.0436 219.677 97.1219 219.773 97.1219Z" fill="white"/>
</g>
</svg>
