<svg width="225" height="280" viewBox="0 0 225 280" fill="none" xmlns="http://www.w3.org/2000/svg">
<g clip-path="url(#clip0_230_1887)">
<path d="M39.2611 243.585L39.2611 228.75L54.8246 228.75L54.8246 220.313L39.2611 220.313L39.2611 205.478L54.8246 205.478L54.8246 193.521L55.8285 193.521L55.8285 206.465L40.265 206.465L40.265 219.326L55.8285 219.326L55.8285 229.737L40.265 229.737L40.265 242.598L55.8285 242.598L55.8285 248.913C55.8285 265.511 69.5698 279.014 86.4596 279.014C97.1307 279.014 107.192 273.41 112.719 264.392L112.998 263.936L113.439 264.244C118.639 267.868 124.75 269.783 131.112 269.783C146.733 269.783 159.817 258.286 161.547 243.038L161.597 242.6L177.307 242.6L177.307 229.739L161.743 229.739L161.743 219.328L177.307 219.328L177.307 206.467L161.743 206.467L161.743 182.38L162.747 182.38L162.747 205.48L178.31 205.48L178.31 220.315L162.747 220.315L162.747 228.752L178.31 228.752L178.31 243.587L162.493 243.587C160.507 259.115 147.095 270.77 131.112 270.77C124.719 270.77 118.572 268.899 113.299 265.351C107.536 274.402 97.3024 280.003 86.4596 280.003C69.0157 280.003 54.8246 266.057 54.8246 248.915L54.8246 243.587L39.2611 243.587L39.2611 243.585ZM72.4392 248.912L72.4392 215.672L100.481 215.672L100.481 248.912C100.481 256.509 94.1911 262.69 86.4606 262.69C78.73 262.69 72.4392 256.509 72.4392 248.912ZM73.4432 216.658L73.4432 248.912C73.4432 255.964 79.2822 261.703 86.4596 261.703C93.6369 261.703 99.476 255.965 99.476 248.912L99.476 216.658L73.4432 216.658ZM117.092 239.679L117.092 215.672L145.132 215.672L145.132 239.679C145.132 247.277 138.843 253.458 131.112 253.458C123.381 253.458 117.092 247.277 117.092 239.679ZM118.096 216.658L118.096 239.679C118.096 246.732 123.935 252.471 131.112 252.471C138.289 252.471 144.128 246.733 144.128 239.679L144.128 216.658L118.096 216.658Z" fill="#303030"/>
<g opacity="0.7304">
<g opacity="0.7304">
<path opacity="0.7304" d="M169.793 187.321L169.793 149.803L192.17 127.814L192.17 89.0439L222.824 58.9196L223.534 59.6171L193.174 89.4523L193.174 128.222L170.797 150.212L170.797 187.321L169.793 187.321Z" fill="#303030"/>
</g>
<g opacity="0.7304">
<path opacity="0.7304" d="M168.407 187.23C168.407 188.254 169.252 189.085 170.295 189.085C171.337 189.085 172.182 188.254 172.182 187.23C172.182 186.205 171.337 185.375 170.295 185.375C169.252 185.375 168.407 186.205 168.407 187.23Z" fill="#303030"/>
</g>
<g opacity="0.7304">
<path opacity="0.7304" d="M221.225 59.334C221.225 60.3584 222.07 61.1888 223.113 61.1888C224.155 61.1888 225 60.3584 225 59.334C225 58.3096 224.155 57.4791 223.113 57.4791C222.07 57.4791 221.225 58.3096 221.225 59.334Z" fill="#303030"/>
</g>
</g>
<path d="M1.38444 41.0727L1.38445 6.25412L2.38841 6.25412L2.38841 40.6633L22.1344 60.068L22.1344 98.838L44.5118 120.828L44.5118 174.142L55.8175 185.253L55.8175 199.097L54.8135 199.097L54.8135 185.662L43.5079 174.551L43.5079 121.236L21.1305 99.2464L21.1305 60.4764L1.38444 41.0727Z" fill="#303030"/>
<path d="M-0.00105318 6.34687C-0.00105322 7.37127 0.843997 8.2017 1.88641 8.2017C2.92883 8.2017 3.77386 7.37127 3.77386 6.34687C3.77386 5.32247 2.92883 4.49203 1.88641 4.49203C0.843997 4.49203 -0.00105313 5.32247 -0.00105318 6.34687Z" fill="#303030"/>
<path d="M161.671 191.291L161.671 139.114L180.254 120.851L180.254 96.5865L170.254 86.7589L170.254 12.8299L171.258 12.8299L171.258 86.3504L181.258 96.1771L181.258 121.26L162.675 139.522L162.675 191.291L161.671 191.291Z" fill="#303030"/>
<path d="M168.868 12.9227C168.868 13.9471 169.713 14.7775 170.756 14.7775C171.798 14.7775 172.643 13.9471 172.643 12.9227C172.643 11.8983 171.798 11.0678 170.756 11.0678C169.713 11.0678 168.868 11.8983 168.868 12.9227Z" fill="#303030"/>
<g opacity="0.5129">
<g opacity="0.5129">
<path opacity="0.5129" d="M48.345 169.608L48.345 148.708L63.8784 133.443L63.8784 103.541L79.0202 88.661L79.0202 44.7291L80.0242 44.7291L80.0242 89.0695L64.8823 103.95L64.8823 133.852L49.349 149.117L49.349 169.199L70.2044 189.695L69.4946 190.393L48.345 169.608Z" fill="#303030"/>
</g>
<g opacity="0.5129">
<path opacity="0.5129" d="M67.8953 189.978C67.8953 191.003 68.7403 191.833 69.7827 191.833C70.8251 191.833 71.6702 191.003 71.6702 189.978C71.6702 188.954 70.8251 188.124 69.7827 188.124C68.7403 188.124 67.8953 188.954 67.8953 189.978Z" fill="#303030"/>
</g>
<g opacity="0.5129">
<path opacity="0.5129" d="M77.6347 44.8218C77.6347 45.8462 78.4798 46.6767 79.5222 46.6767C80.5646 46.6767 81.4097 45.8462 81.4097 44.8218C81.4097 43.7974 80.5646 42.967 79.5222 42.967C78.4798 42.967 77.6347 43.7974 77.6347 44.8218Z" fill="#303030"/>
</g>
</g>
<g opacity="0.5919">
<g opacity="0.5919">
<path opacity="0.5919" d="M145.543 205.441L152.749 198.359L152.749 140.228L172.538 120.782L172.538 103.278L158.032 89.0231L158.032 33.461L159.036 33.461L159.036 88.6147L173.542 102.869L173.542 121.191L153.752 140.637L153.752 198.767L146.253 206.138L145.543 205.441Z" fill="#303030"/>
</g>
<g opacity="0.5919">
<path opacity="0.5919" d="M156.647 33.5547C156.647 34.5791 157.492 35.4096 158.534 35.4096C159.577 35.4096 160.422 34.5791 160.422 33.5547C160.422 32.5303 159.577 31.6999 158.534 31.6999C157.492 31.6999 156.647 32.5303 156.647 33.5547Z" fill="#303030"/>
</g>
<g opacity="0.5919">
<path opacity="0.5919" d="M144.078 205.723C144.078 206.747 144.923 207.578 145.966 207.578C147.008 207.578 147.853 206.747 147.853 205.723C147.853 204.698 147.008 203.868 145.966 203.868C144.923 203.868 144.078 204.698 144.078 205.723Z" fill="#303030"/>
</g>
</g>
<g opacity="0.2668">
<g opacity="0.2668">
<path opacity="0.2668" d="M65.6514 166.983L65.6514 141.459L95.433 112.193L95.433 52.0932L81.0984 38.0073L81.8082 37.3088L96.437 51.6848L96.437 112.601L66.6553 141.868L66.6553 166.575L81.2661 180.934L81.2661 206.419L80.2621 206.419L80.2621 181.343L65.6514 166.983Z" fill="#303030"/>
</g>
<g opacity="0.2668">
<path opacity="0.2668" d="M78.8766 206.327C78.8766 207.351 79.7217 208.181 80.7641 208.181C81.8065 208.181 82.6516 207.351 82.6516 206.327C82.6516 205.302 81.8065 204.472 80.7641 204.472C79.7217 204.472 78.8766 205.302 78.8766 206.327Z" fill="#303030"/>
</g>
<g opacity="0.2668">
<path opacity="0.2668" d="M79.6326 37.7232C79.6326 38.7476 80.4777 39.578 81.5201 39.578C82.5625 39.578 83.4075 38.7476 83.4075 37.7232C83.4075 36.6988 82.5625 35.8683 81.5201 35.8683C80.4777 35.8683 79.6326 36.6988 79.6326 37.7232Z" fill="#303030"/>
</g>
</g>
<g opacity="0.7109">
<g opacity="0.7109">
<path opacity="0.7109" d="M59.5513 172.561L59.5513 159.063L60.5553 159.063L60.5552 172.151L76.1629 187.489L75.4521 188.187L59.5513 172.561Z" fill="#303030"/>
</g>
<g opacity="0.7109">
<path opacity="0.7109" d="M73.8538 187.772C73.8538 188.797 74.6989 189.627 75.7413 189.627C76.7837 189.627 77.6287 188.797 77.6287 187.772C77.6287 186.748 76.7837 185.917 75.7413 185.917C74.6989 185.917 73.8538 186.748 73.8538 187.772Z" fill="#303030"/>
</g>
<g opacity="0.7109">
<path opacity="0.7109" d="M58.1658 159.155C58.1658 160.179 59.0109 161.009 60.0533 161.009C61.0957 161.009 61.9407 160.179 61.9407 159.155C61.9407 158.13 61.0957 157.3 60.0533 157.3C59.0109 157.3 58.1658 158.13 58.1658 159.155Z" fill="#303030"/>
</g>
</g>
<g opacity="0.8">
<g opacity="0.8">
<path opacity="0.8" d="M133.879 206.587L143.529 197.104L143.529 144.689L161.402 127.125L161.402 98.2588L145.94 83.064L145.94 19.7856L164.607 1.44046L165.317 2.138L146.944 20.194L146.944 82.6555L162.406 97.8504L162.406 127.534L144.533 145.097L144.533 197.513L134.589 207.285L133.879 206.587Z" fill="#303030"/>
</g>
<g opacity="0.8">
<path opacity="0.8" d="M132.413 206.87C132.413 207.895 133.258 208.725 134.301 208.725C135.343 208.725 136.188 207.895 136.188 206.87C136.188 205.846 135.343 205.015 134.301 205.015C133.258 205.015 132.413 205.846 132.413 206.87Z" fill="#303030"/>
</g>
<g opacity="0.8">
<path opacity="0.8" d="M163.008 1.85483C163.008 2.87923 163.853 3.70967 164.895 3.70967C165.938 3.70967 166.783 2.87923 166.783 1.85483C166.783 0.830437 165.938 -3.69381e-08 164.896 -8.25034e-08C163.853 -1.28069e-07 163.008 0.830437 163.008 1.85483Z" fill="#303030"/>
</g>
</g>
<g opacity="0.412">
<g opacity="0.412">
<path opacity="0.412" d="M121.396 207.423L136.294 192.782L136.294 145.805L154.948 127.472L154.948 99.3747L131.928 76.7526L132.638 76.0551L155.952 98.9662L155.952 127.881L137.298 146.213L137.298 193.191L122.105 208.12L121.396 207.423Z" fill="#303030"/>
</g>
<g opacity="0.412">
<path opacity="0.412" d="M119.93 207.707C119.93 208.731 120.775 209.562 121.817 209.562C122.86 209.562 123.705 208.731 123.705 207.707C123.705 206.682 122.86 205.852 121.817 205.852C120.775 205.852 119.93 206.682 119.93 207.707Z" fill="#303030"/>
</g>
<g opacity="0.412">
<path opacity="0.412" d="M130.462 76.4695C130.462 77.4939 131.307 78.3243 132.35 78.3243C133.392 78.3243 134.237 77.4939 134.237 76.4695C134.237 75.4451 133.392 74.6146 132.35 74.6146C131.307 74.6146 130.462 75.4451 130.462 76.4695Z" fill="#303030"/>
</g>
</g>
<g opacity="0.3847">
<g opacity="0.3847">
<path opacity="0.3847" d="M74.5877 157.087L74.5877 139.228L108.695 105.711L108.695 17.4068L109.699 17.4068L109.699 106.119L75.5916 139.636L75.5916 156.678L88.3581 169.224L88.3581 203.237L94.8025 209.57L94.0927 210.267L87.3541 203.646L87.3541 169.632L74.5877 157.087Z" fill="#303030"/>
</g>
<g opacity="0.3847">
<path opacity="0.3847" d="M92.4934 209.854C92.4934 210.878 93.3384 211.708 94.3809 211.708C95.4233 211.708 96.2683 210.878 96.2683 209.854C96.2683 208.829 95.4233 207.999 94.3809 207.999C93.3384 207.999 92.4934 208.829 92.4934 209.854Z" fill="#303030"/>
</g>
<g opacity="0.3847">
<path opacity="0.3847" d="M107.31 17.4986C107.31 18.523 108.155 19.3534 109.197 19.3534C110.24 19.3534 111.085 18.523 111.085 17.4986C111.085 16.4742 110.24 15.6437 109.197 15.6437C108.155 15.6437 107.31 16.4742 107.31 17.4986Z" fill="#303030"/>
</g>
</g>
<g opacity="0.4875">
<g opacity="0.4875">
<path opacity="0.4875" d="M115.441 140.359L115.441 128.812L116.445 128.812L116.445 139.95L127.511 150.823L127.511 191.086L126.507 191.086L126.507 151.231L115.441 140.359Z" fill="#303030"/>
</g>
<g opacity="0.4875">
<path opacity="0.4875" d="M125.12 190.994C125.12 192.018 125.965 192.848 127.008 192.848C128.05 192.848 128.895 192.018 128.895 190.994C128.895 189.969 128.05 189.139 127.008 189.139C125.965 189.139 125.12 189.969 125.12 190.994Z" fill="#303030"/>
</g>
<g opacity="0.4875">
<path opacity="0.4875" d="M114.057 128.905C114.057 129.929 114.902 130.76 115.944 130.76C116.987 130.76 117.832 129.929 117.832 128.905C117.832 127.881 116.987 127.05 115.944 127.05C114.902 127.05 114.057 127.881 114.057 128.905Z" fill="#303030"/>
</g>
</g>
<g opacity="0.2223">
<g opacity="0.2223">
<path opacity="0.2223" d="M126.786 138.838L143.245 122.664L143.245 99.2593L144.249 99.2593L144.249 123.072L127.496 139.536L126.786 138.838Z" fill="#303030"/>
</g>
<g opacity="0.2223">
<path opacity="0.2223" d="M125.32 139.121C125.32 140.146 126.165 140.976 127.208 140.976C128.25 140.976 129.095 140.146 129.095 139.121C129.095 138.097 128.25 137.267 127.208 137.267C126.165 137.267 125.32 138.097 125.32 139.121Z" fill="#303030"/>
</g>
<g opacity="0.2223">
<path opacity="0.2223" d="M141.859 99.352C141.859 100.376 142.705 101.207 143.747 101.207C144.789 101.207 145.634 100.376 145.634 99.352C145.634 98.3276 144.789 97.4972 143.747 97.4972C142.705 97.4972 141.859 98.3276 141.859 99.352Z" fill="#303030"/>
</g>
</g>
<g opacity="0.7062">
<g opacity="0.7062">
<path opacity="0.7062" d="M125.084 127.687L136.436 116.53L136.436 95.9136L137.44 95.9136L137.44 116.938L125.794 128.384L125.084 127.687Z" fill="#303030"/>
</g>
<g opacity="0.7062">
<path opacity="0.7062" d="M123.618 127.97C123.618 128.994 124.463 129.825 125.506 129.825C126.548 129.825 127.393 128.994 127.393 127.97C127.393 126.945 126.548 126.115 125.506 126.115C124.463 126.115 123.618 126.945 123.618 127.97Z" fill="#303030"/>
</g>
<g opacity="0.7062">
<path opacity="0.7062" d="M135.051 96.0064C135.051 97.0308 135.896 97.8612 136.938 97.8612C137.98 97.8612 138.826 97.0308 138.826 96.0064C138.826 94.982 137.98 94.1516 136.938 94.1516C135.896 94.1516 135.051 94.982 135.051 96.0064Z" fill="#303030"/>
</g>
</g>
<g opacity="0.5587">
<g opacity="0.5587">
<path opacity="0.5587" d="M75.7192 32.283L75.7192 18.5217L74.7152 18.5217L74.7152 32.283L75.7192 32.283Z" fill="#303030"/>
</g>
<g opacity="0.5587">
<path opacity="0.5587" d="M73.3297 32.1903C73.3297 33.2147 74.1748 34.0451 75.2172 34.0451C76.2596 34.0451 77.1046 33.2147 77.1046 32.1903C77.1046 31.1659 76.2596 30.3354 75.2172 30.3354C74.1748 30.3354 73.3297 31.1659 73.3297 32.1903Z" fill="#303030"/>
</g>
<g opacity="0.5587">
<path opacity="0.5587" d="M73.3297 18.6144C73.3297 19.6388 74.1748 20.4693 75.2172 20.4693C76.2596 20.4693 77.1046 19.6388 77.1046 18.6144C77.1046 17.5901 76.2596 16.7596 75.2172 16.7596C74.1748 16.7596 73.3297 17.5901 73.3297 18.6144Z" fill="#303030"/>
</g>
</g>
<g opacity="0.688">
<g opacity="0.688">
<path opacity="0.688" d="M73.2936 119.437L88.0499 104.935L88.0499 57.5541L89.0539 57.5541L89.0539 105.344L74.0034 120.135L73.2936 119.437Z" fill="#303030"/>
</g>
<g opacity="0.688">
<path opacity="0.688" d="M71.8268 119.721C71.8268 120.745 72.6719 121.575 73.7143 121.575C74.7567 121.575 75.6017 120.745 75.6017 119.721C75.6017 118.696 74.7567 117.866 73.7143 117.866C72.6719 117.866 71.8268 118.696 71.8268 119.721Z" fill="#303030"/>
</g>
<g opacity="0.688">
<path opacity="0.688" d="M86.6644 57.6469C86.6644 58.6713 87.5095 59.5017 88.5519 59.5017C89.5943 59.5017 90.4393 58.6713 90.4393 57.6469C90.4393 56.6225 89.5943 55.792 88.5519 55.792C87.5095 55.792 86.6644 56.6225 86.6644 57.6469Z" fill="#303030"/>
</g>
</g>
<g opacity="0.9899">
<g opacity="0.9899">
<path opacity="0.9899" d="M10.3137 41.2187L10.3137 9.04132L11.3177 9.04132L11.3177 40.8103L36.5674 65.6246L36.5674 94.0618L53.0225 110.233L53.0225 140.458L52.0185 140.458L52.0185 110.642L35.5635 94.4702L35.5635 66.0331L10.3137 41.2187Z" fill="#303030"/>
</g>
<g opacity="0.9899">
<path opacity="0.9899" d="M50.6331 140.367C50.6331 141.391 51.4781 142.221 52.5205 142.221C53.5629 142.221 54.408 141.391 54.408 140.367C54.408 139.342 53.5629 138.512 52.5205 138.512C51.4781 138.512 50.6331 139.342 50.6331 140.367Z" fill="#303030"/>
</g>
<g opacity="0.9899">
<path opacity="0.9899" d="M8.92825 9.13407C8.92825 10.1585 9.7733 10.9889 10.8157 10.9889C11.8581 10.9889 12.7032 10.1585 12.7032 9.13407C12.7032 8.10967 11.8581 7.27924 10.8157 7.27924C9.7733 7.27924 8.92825 8.10967 8.92825 9.13407Z" fill="#303030"/>
</g>
</g>
<g opacity="0.6948">
<g opacity="0.6948">
<path opacity="0.6948" d="M49.4614 7.7597L50.1712 7.06216L69.4775 26.0347L69.4775 83.876L58.1296 95.0277L58.1296 129.307L57.1257 129.307L57.1257 94.6192L68.4735 83.4675L68.4735 26.4432L49.4614 7.7597Z" fill="#303030"/>
</g>
<g opacity="0.6948">
<path opacity="0.6948" d="M55.7402 129.214C55.7402 130.238 56.5853 131.069 57.6277 131.069C58.6701 131.069 59.5151 130.238 59.5151 129.214C59.5151 128.189 58.6701 127.359 57.6277 127.359C56.5853 127.359 55.7402 128.189 55.7402 129.214Z" fill="#303030"/>
</g>
<g opacity="0.6948">
<path opacity="0.6948" d="M47.9956 7.47654C47.9956 8.50093 48.8406 9.33137 49.883 9.33137C50.9255 9.33137 51.7705 8.50094 51.7705 7.47654C51.7705 6.45214 50.9255 5.6217 49.883 5.6217C48.8406 5.6217 47.9956 6.45214 47.9956 7.47654Z" fill="#303030"/>
</g>
</g>
<g opacity="0.7808">
<g opacity="0.7808">
<path opacity="0.7808" d="M27.6191 39.2672L27.6191 12.0939L36.9951 2.87991L37.705 3.57745L28.6231 12.5024L28.6231 38.8588L49.0508 58.9324L49.0508 91.389L48.0468 91.389L48.0468 59.3418L27.6191 39.2672Z" fill="#303030"/>
</g>
<g opacity="0.7808">
<path opacity="0.7808" d="M46.6614 91.2963C46.6614 92.3207 47.5064 93.1511 48.5488 93.1511C49.5912 93.1511 50.4363 92.3207 50.4363 91.2963C50.4363 90.2719 49.5912 89.4414 48.5488 89.4414C47.5064 89.4414 46.6614 90.2719 46.6614 91.2963Z" fill="#303030"/>
</g>
<g opacity="0.7808">
<path opacity="0.7808" d="M35.3968 3.29429C35.3968 4.31868 36.2419 5.14912 37.2843 5.14912C38.3267 5.14912 39.1718 4.31868 39.1718 3.29429C39.1718 2.26989 38.3267 1.43945 37.2843 1.43945C36.2419 1.43945 35.3968 2.26989 35.3968 3.29429Z" fill="#303030"/>
</g>
</g>
<g opacity="0.6487">
<g opacity="0.6487">
<path opacity="0.6487" d="M40.9538 31.7403L40.9538 18.5217L41.9577 18.5217L41.9577 31.3309L57.5614 46.6658L57.5614 80.2373L56.5574 80.2373L56.5574 47.0743L40.9538 31.7403Z" fill="#303030"/>
</g>
<g opacity="0.6487">
<path opacity="0.6487" d="M55.172 80.1446C55.172 81.169 56.017 81.9994 57.0595 81.9994C58.1019 81.9994 58.9469 81.169 58.9469 80.1446C58.9469 79.1202 58.1019 78.2897 57.0595 78.2897C56.017 78.2897 55.172 79.1202 55.172 80.1446Z" fill="#303030"/>
</g>
<g opacity="0.6487">
<path opacity="0.6487" d="M39.5683 18.6134C39.5683 19.6378 40.4134 20.4683 41.4558 20.4683C42.4982 20.4683 43.3433 19.6378 43.3433 18.6134C43.3433 17.589 42.4982 16.7586 41.4558 16.7586C40.4134 16.7586 39.5683 17.589 39.5683 18.6134Z" fill="#303030"/>
</g>
</g>
<g opacity="0.3038">
<g opacity="0.3038">
<path opacity="0.3038" d="M74.9933 4.41412L75.7031 3.71658L100.684 28.2655L100.684 93.0623L99.6798 93.0623L99.6798 28.674L74.9933 4.41412Z" fill="#303030"/>
</g>
<g opacity="0.3038">
<path opacity="0.3038" d="M98.2944 92.9696C98.2944 93.994 99.1394 94.8244 100.182 94.8244C101.224 94.8244 102.069 93.994 102.069 92.9696C102.069 91.9452 101.224 91.1148 100.182 91.1148C99.1394 91.1148 98.2944 91.9452 98.2944 92.9696Z" fill="#303030"/>
</g>
<g opacity="0.3038">
<path opacity="0.3038" d="M73.5275 4.13096C73.5275 5.15535 74.3725 5.98579 75.415 5.98579C76.4574 5.98579 77.3024 5.15535 77.3024 4.13096C77.3024 3.10656 76.4574 2.27612 75.415 2.27612C74.3725 2.27612 73.5275 3.10656 73.5275 4.13096Z" fill="#303030"/>
</g>
</g>
<g opacity="0.2599">
<g opacity="0.2599">
<path opacity="0.2599" d="M85.7789 147.164L85.7789 136.441L116.844 105.912L116.844 11.8305L117.848 11.8305L117.848 106.32L86.7829 136.849L86.7829 146.756L98.9811 158.744L98.9811 191.644L108.348 200.848L107.638 201.545L97.9771 192.052L97.9771 159.154L85.7789 147.164Z" fill="#303030"/>
</g>
<g opacity="0.2599">
<path opacity="0.2599" d="M106.039 201.131C106.039 202.155 106.884 202.986 107.926 202.986C108.969 202.986 109.814 202.155 109.814 201.131C109.814 200.107 108.969 199.276 107.926 199.276C106.884 199.276 106.039 200.107 106.039 201.131Z" fill="#303030"/>
</g>
<g opacity="0.2599">
<path opacity="0.2599" d="M115.459 11.9232C115.459 12.9476 116.304 13.7781 117.347 13.7781C118.389 13.7781 119.234 12.9476 119.234 11.9232C119.234 10.8988 118.389 10.0684 117.347 10.0684C116.304 10.0684 115.459 10.8988 115.459 11.9232Z" fill="#303030"/>
</g>
</g>
<g opacity="0.8829">
<g opacity="0.8829">
<path opacity="0.8829" d="M95.2824 146.19L95.2824 134.768L125.284 105.285L125.284 6.81158L126.288 6.81158L126.288 105.693L96.2864 135.177L96.2864 145.78L104.94 154.284L104.94 189.134L113.454 197.502L112.744 198.2L103.936 189.542L103.936 154.692L95.2824 146.19Z" fill="#303030"/>
</g>
<g opacity="0.8829">
<path opacity="0.8829" d="M111.145 197.785C111.145 198.81 111.99 199.64 113.033 199.64C114.075 199.64 114.92 198.81 114.92 197.785C114.92 196.761 114.075 195.931 113.033 195.931C111.99 195.931 111.145 196.761 111.145 197.785Z" fill="#303030"/>
</g>
<g opacity="0.8829">
<path opacity="0.8829" d="M123.899 6.90433C123.899 7.92873 124.744 8.75917 125.786 8.75917C126.828 8.75917 127.673 7.92873 127.673 6.90433C127.673 5.87994 126.828 5.0495 125.786 5.0495C124.744 5.0495 123.899 5.87994 123.899 6.90433Z" fill="#303030"/>
</g>
</g>
<g opacity="0.8947">
<g opacity="0.8947">
<path opacity="0.8947" d="M107.903 146.045L108.613 145.348L119.976 156.514L119.976 191.758L118.972 191.758L118.972 156.923L107.903 146.045Z" fill="#303030"/>
</g>
<g opacity="0.8947">
<path opacity="0.8947" d="M117.587 191.666C117.587 192.691 118.432 193.521 119.474 193.521C120.516 193.521 121.362 192.691 121.362 191.666C121.362 190.642 120.516 189.812 119.474 189.812C118.432 189.812 117.587 190.642 117.587 191.666Z" fill="#303030"/>
</g>
<g opacity="0.8947">
<path opacity="0.8947" d="M106.438 145.762C106.438 146.787 107.283 147.617 108.325 147.617C109.367 147.617 110.212 146.787 110.212 145.762C110.212 144.738 109.367 143.907 108.325 143.907C107.283 143.907 106.438 144.738 106.438 145.762Z" fill="#303030"/>
</g>
</g>
<g opacity="0.6324">
<g opacity="0.6324">
<path opacity="0.6324" d="M184.793 115.367L184.793 80.6794L211.76 54.1789L212.469 54.8765L185.797 81.0888L185.797 115.367L184.793 115.367Z" fill="#303030"/>
</g>
<g opacity="0.6324">
<path opacity="0.6324" d="M183.408 115.273C183.408 116.297 184.253 117.128 185.295 117.128C186.338 117.128 187.183 116.297 187.183 115.273C187.183 114.249 186.338 113.418 185.295 113.418C184.253 113.418 183.408 114.249 183.408 115.273Z" fill="#303030"/>
</g>
<g opacity="0.6324">
<path opacity="0.6324" d="M210.16 54.5933C210.16 55.6177 211.005 56.4481 212.048 56.4481C213.09 56.4481 213.935 55.6177 213.935 54.5933C213.935 53.5689 213.09 52.7385 212.048 52.7385C211.005 52.7385 210.16 53.5689 210.16 54.5933Z" fill="#303030"/>
</g>
</g>
<g opacity="0.8529">
<g opacity="0.8529">
<path opacity="0.8529" d="M184.931 68.2756L201.957 51.5446L201.957 4.71994L202.961 4.71994L202.961 51.9531L185.64 68.9732L184.931 68.2756Z" fill="#303030"/>
</g>
<g opacity="0.8529">
<path opacity="0.8529" d="M183.465 68.5598C183.465 69.5842 184.31 70.4146 185.352 70.4146C186.395 70.4146 187.24 69.5842 187.24 68.5598C187.24 67.5354 186.395 66.7049 185.352 66.7049C184.31 66.7049 183.465 67.5354 183.465 68.5598Z" fill="#303030"/>
</g>
<g opacity="0.8529">
<path opacity="0.8529" d="M200.571 4.81269C200.571 5.83709 201.417 6.66752 202.459 6.66752C203.501 6.66752 204.346 5.83709 204.346 4.81269C204.346 3.78829 203.501 2.95786 202.459 2.95786C201.417 2.95786 200.571 3.78829 200.571 4.81269Z" fill="#303030"/>
</g>
</g>
</g>
<defs>
<clipPath id="clip0_230_1887">
<rect width="280" height="225" fill="white" transform="translate(225) rotate(90)"/>
</clipPath>
</defs>
</svg>
