<svg width="158" height="294" viewBox="0 0 158 294" fill="none" xmlns="http://www.w3.org/2000/svg">
<path d="M113.48 39.1853L92.0872 60.8296L92.0872 80.7122L116.5 80.7122L154 146.148L116.5 210.326L92.0872 210.326L92.0872 229.706L113.48 252.105" stroke="#212121" stroke-width="6" stroke-linecap="round"/>
<path d="M65.9128 247.323L65.9128 230.712L65.9128 210.83L41.5 210.83L4.00001 145.393L41.5 81.2155L65.9128 81.2155L65.9128 61.8363L65.9128 43.2122" stroke="#212121" stroke-width="6" stroke-linecap="round"/>
<path d="M91.584 16.2827L91.584 41.4504L79.0001 55.2927L79.0001 93.2961M79.0001 93.2961L49.8055 93.2961L18.8491 145.393L48.5471 197.742L79.0001 197.742M79.0001 93.2961L108.698 94.0511L139.151 145.393L109.201 197.742L79.0001 197.742M79.0001 197.742L79.0001 234.739L92.0873 249.336L92.0873 276.014" stroke="#212121" stroke-width="6" stroke-linecap="round"/>
<path d="M119.772 41.9538C115.046 41.9538 111.215 38.1227 111.215 33.3967C111.215 28.6708 115.046 24.8397 119.772 24.8397C124.498 24.8397 128.329 28.6708 128.329 33.3967C128.329 38.1227 124.498 41.9538 119.772 41.9538ZM119.772 27.9927C116.787 27.9927 114.368 30.4122 114.368 33.3967C114.368 36.3813 116.787 38.8008 119.772 38.8008C122.756 38.8008 125.176 36.3813 125.176 33.3967C125.176 30.4122 122.756 27.9927 119.772 27.9927Z" fill="#212121"/>
<path d="M91.202 17.1141C86.4761 17.1141 82.6449 13.283 82.6449 8.55705C82.6449 3.83112 86.4761 -5.80617e-07 91.202 -3.7404e-07C95.9279 -1.67464e-07 99.759 3.83112 99.759 8.55705C99.759 13.283 95.9279 17.1141 91.202 17.1141ZM91.202 2.81154C88.0288 2.81154 85.4565 5.38389 85.4565 8.55705C85.4565 11.7302 88.0288 14.3026 91.202 14.3026C94.3751 14.3026 96.9475 11.7302 96.9475 8.55705C96.9475 5.38389 94.3751 2.81154 91.202 2.81154Z" fill="#212121"/>
<path d="M65.9127 42.9605C61.1867 42.9605 57.3556 39.1294 57.3556 34.4035C57.3556 29.6775 61.1868 25.8464 65.9127 25.8464C70.6386 25.8464 74.4697 29.6775 74.4697 34.4035C74.4697 39.1294 70.6386 42.9605 65.9127 42.9605ZM65.9127 28.8997C62.8731 28.8997 60.409 31.3638 60.409 34.4035C60.409 37.4431 62.8731 39.9072 65.9127 39.9072C68.9523 39.9072 71.4164 37.4431 71.4164 34.4035C71.4164 31.3638 68.9523 28.8997 65.9127 28.8997Z" fill="#212121"/>
<path d="M65.9127 264.437C61.1867 264.437 57.3556 260.606 57.3556 255.88C57.3556 251.154 61.1868 247.323 65.9127 247.323C70.6386 247.323 74.4697 251.154 74.4697 255.88C74.4697 260.606 70.6386 264.437 65.9127 264.437ZM65.9127 249.819C62.5654 249.819 59.8519 252.533 59.8519 255.88C59.8519 259.227 62.5654 261.941 65.9127 261.941C69.26 261.941 71.9735 259.227 71.9735 255.88C71.9735 252.533 69.26 249.819 65.9127 249.819Z" fill="#212121"/>
<path d="M92.0872 293.128C87.3613 293.128 83.5302 289.297 83.5302 284.571C83.5302 279.845 87.3613 276.014 92.0872 276.014C96.8132 276.014 100.644 279.845 100.644 284.571C100.644 289.297 96.8132 293.128 92.0872 293.128ZM92.0872 278.611C88.7955 278.611 86.1271 281.28 86.1271 284.571C86.1271 287.863 88.7955 290.531 92.0872 290.531C95.3789 290.531 98.0474 287.863 98.0474 284.571C98.0474 281.28 95.3789 278.611 92.0872 278.611Z" fill="#212121"/>
<path d="M119.996 266.221C115.27 266.221 111.439 262.39 111.439 257.664C111.439 252.938 115.27 249.107 119.996 249.107C124.722 249.107 128.553 252.938 128.553 257.664C128.553 262.39 124.722 266.221 119.996 266.221ZM119.996 251.786C116.75 251.786 114.119 254.418 114.119 257.664C114.119 260.91 116.75 263.542 119.996 263.542C123.243 263.542 125.874 260.91 125.874 257.664C125.874 254.418 123.243 251.786 119.996 251.786Z" fill="#212121"/>
<path d="M92.047 126.351C92.198 126.351 92.3188 126.397 92.4094 126.487C92.5302 126.608 92.5906 126.744 92.5906 126.895L92.5906 132.195C92.5906 132.346 92.5302 132.467 92.4094 132.558C92.3188 132.679 92.198 132.739 92.0469 132.739L61.4228 132.739C61.2718 132.739 61.1359 132.679 61.0151 132.558C60.9245 132.467 60.8792 132.346 60.8792 132.195L60.8792 127.076C60.8792 126.774 61 126.563 61.2416 126.442L80.6308 114.709C80.7214 114.648 80.7516 114.588 80.7214 114.528C80.7214 114.467 80.661 114.437 80.5402 114.437L61.4228 114.528C61.2718 114.528 61.1359 114.467 61.0151 114.346C60.9245 114.256 60.8792 114.135 60.8792 113.984L60.8792 108.684C60.8792 108.533 60.9245 108.397 61.0151 108.276C61.1359 108.185 61.2718 108.14 61.4228 108.14L92.047 108.14C92.198 108.14 92.3188 108.185 92.4094 108.276C92.5302 108.397 92.5906 108.533 92.5906 108.684L92.5906 113.803C92.5906 114.105 92.4698 114.316 92.2282 114.437L72.9295 126.125C72.8389 126.185 72.7936 126.246 72.7936 126.306C72.8238 126.367 72.8993 126.397 73.0201 126.397L92.047 126.351Z" fill="#212121"/>
<path d="M87.6527 162.239C87.5016 162.239 87.3657 162.178 87.2449 162.058C87.1543 161.967 87.109 161.846 87.109 161.695L87.109 146.881C87.109 146.73 87.0335 146.655 86.8825 146.655L79.8607 146.655C79.7097 146.655 79.6342 146.73 79.6342 146.881L79.6342 156.621C79.6342 156.772 79.5738 156.893 79.453 156.984C79.3624 157.105 79.2416 157.165 79.0906 157.165L74.6963 157.165C74.5453 157.165 74.4094 157.105 74.2886 156.984C74.198 156.893 74.1527 156.772 74.1527 156.621L74.1527 146.881C74.1527 146.73 74.0771 146.655 73.9261 146.655L61.4228 146.655C61.2718 146.655 61.1359 146.595 61.0151 146.474C60.9245 146.383 60.8792 146.262 60.8792 146.111L60.8792 140.811C60.8792 140.66 60.9245 140.524 61.0151 140.403C61.1359 140.313 61.2718 140.267 61.4228 140.267L92.0469 140.267C92.198 140.267 92.3188 140.313 92.4094 140.403C92.5302 140.524 92.5906 140.66 92.5906 140.811L92.5906 161.695C92.5906 161.846 92.5302 161.967 92.4094 162.058C92.3188 162.178 92.198 162.239 92.0469 162.239L87.6527 162.239Z" fill="#212121"/>
<path d="M92.5906 189.763C92.5906 189.914 92.5302 190.035 92.4094 190.125C92.3188 190.246 92.198 190.307 92.0469 190.307L87.6073 190.307C87.4563 190.307 87.3204 190.246 87.1996 190.125C87.109 190.035 87.0637 189.914 87.0637 189.763L87.0637 181.654C87.0637 181.503 86.9882 181.427 86.8372 181.427L61.4228 181.427C61.2718 181.427 61.1359 181.367 61.0151 181.246C60.9245 181.156 60.8792 181.035 60.8792 180.884L60.8792 175.583C60.8792 175.432 60.9245 175.297 61.0151 175.176C61.1359 175.085 61.2718 175.04 61.4228 175.04L86.8372 175.04C86.9882 175.04 87.0637 174.964 87.0637 174.813L87.0637 166.931C87.0637 166.78 87.109 166.644 87.1996 166.523C87.3204 166.432 87.4563 166.387 87.6074 166.387L92.0469 166.387C92.198 166.387 92.3188 166.432 92.4094 166.523C92.5302 166.644 92.5906 166.78 92.5906 166.931L92.5906 189.763Z" fill="#212121"/>
</svg>
